<?xml version="1.0" encoding="utf-8"?>
<!-- Generator: Adobe Illustrator 16.0.0, SVG Export Plug-In . SVG Version: 6.00 Build 0)  -->
<!DOCTYPE svg PUBLIC "-//W3C//DTD SVG 1.1//EN" "http://www.w3.org/Graphics/SVG/1.1/DTD/svg11.dtd">
<svg version="1.1" id="Layer_1" xmlns="http://www.w3.org/2000/svg" xmlns:xlink="http://www.w3.org/1999/xlink" x="0px" y="0px"
	 width="200px" height="82.389px" viewBox="0 0 200 82.389" enable-background="new 0 0 200 82.389" xml:space="preserve">
<path fill="#FFFFFF" d="M37.829,47.075v2.677c-0.007,0.779-0.167,1.367-0.479,1.767c-0.313,0.394-0.753,0.595-1.319,0.595
	c-0.579-0.008-1.026-0.216-1.332-0.627c-0.309-0.407-0.468-0.987-0.468-1.734v-9.074c0.008-0.587,0.174-1.046,0.5-1.372
	c0.327-0.334,0.772-0.5,1.34-0.506c0.58-0.007,1.021,0.167,1.313,0.512c0.301,0.348,0.446,0.913,0.446,1.687v1.879h6.076v-0.601
	c-0.006-1.545-0.199-2.845-0.585-3.904c-0.38-1.053-0.92-1.899-1.619-2.538c-0.698-0.633-1.533-1.092-2.486-1.38
	c-0.951-0.279-1.999-0.42-3.145-0.413c-1.146-0.007-2.199,0.134-3.159,0.413c-0.959,0.288-1.799,0.739-2.504,1.372
	c-0.715,0.641-1.268,1.479-1.66,2.533c-0.388,1.052-0.587,2.346-0.593,3.877v6.758c0.006,1.731,0.32,3.173,0.953,4.319
	c0.625,1.15,1.526,2.011,2.698,2.583c1.172,0.566,2.579,0.854,4.225,0.854c1.646,0.006,3.052-0.273,4.226-0.846
	c1.18-0.573,2.078-1.485,2.705-2.732c0.626-1.246,0.938-2.879,0.944-4.898v-1.198H37.829L37.829,47.075z"/>
<path fill="#FFFFFF" d="M70.088,39.687c-0.28-0.603-0.666-1.114-1.143-1.521c-0.479-0.411-1.017-0.718-1.621-0.922
	c-0.598-0.206-1.224-0.313-1.868-0.313c-0.67,0-1.32,0.101-1.959,0.313c-0.637,0.204-1.209,0.518-1.726,0.943
	c-0.203,0.166-0.377,0.366-0.545,0.57c-0.022-0.734-0.157-1.395-0.417-1.96c-0.279-0.604-0.664-1.115-1.142-1.521
	c-0.134-0.114-0.281-0.201-0.424-0.3c-0.321-0.25-0.651-0.478-1.03-0.625c-0.551-0.213-1.123-0.32-1.714-0.32
	c-0.066,0-0.136,0.015-0.202,0.02c-0.039-0.002-0.079-0.011-0.119-0.011c-0.052,0-0.102,0.021-0.15,0.035
	c-0.438,0.04-0.878,0.12-1.322,0.276c-0.605,0.212-1.175,0.531-1.715,0.957c-0.537,0.423-1.002,0.957-1.395,1.594v-4.593
	l-5.739-1.834l0.001,25.598h6.058V40.969c0-0.312,0.034-0.584,0.1-0.828c0.067-0.242,0.168-0.451,0.306-0.625
	c0.271-0.353,0.689-0.525,1.268-0.533c0.519,0,0.918,0.161,1.189,0.485c0.266,0.333,0.404,0.831,0.404,1.509v15.098h6.059l0,0
	V43.456c0.049-0.42,0.15-0.786,0.356-1.052c0.272-0.352,0.69-0.524,1.268-0.531c0.521,0,0.919,0.159,1.19,0.485
	c0.266,0.332,0.405,0.829,0.405,1.507v12.209h6.059V41.793C70.511,40.995,70.365,40.292,70.088,39.687z"/>
<polygon fill-rule="evenodd" clip-rule="evenodd" fill="#FFFFFF" points="70.52,27.676 45.895,19.811 45.895,19.779 45.845,19.795 
	45.796,19.779 45.796,19.811 28.514,25.332 28.514,31.389 45.845,25.852 70.52,33.732 "/>
<g>
	<path fill="#FFFFFF" d="M80.377,56.073h-6.179V30.429h14.358v4.857h-8.18v5.036h7.322v4.857h-7.322V56.073z"/>
	<path fill="#FFFFFF" d="M94.306,47.145v2.965c0,0.785,0.126,1.398,0.375,1.84c0.25,0.44,0.709,0.66,1.375,0.66
		c0.667,0,1.125-0.227,1.375-0.679c0.251-0.452,0.376-1.06,0.376-1.821v-1.144h5.144v1.394c0,1.142-0.203,2.112-0.607,2.91
		c-0.405,0.799-0.941,1.447-1.607,1.946c-0.667,0.501-1.411,0.857-2.232,1.071c-0.821,0.216-1.639,0.322-2.447,0.322
		c-0.834,0-1.655-0.114-2.465-0.339c-0.81-0.226-1.548-0.591-2.213-1.09c-0.668-0.499-1.204-1.148-1.607-1.946
		c-0.406-0.798-0.607-1.769-0.607-2.912V42.5c0-1.142,0.201-2.106,0.607-2.892c0.403-0.786,0.939-1.423,1.607-1.911
		c0.665-0.488,1.403-0.84,2.213-1.054s1.631-0.321,2.465-0.321c0.809,0,1.626,0.107,2.447,0.321s1.565,0.571,2.232,1.071
		c0.666,0.5,1.202,1.148,1.607,1.947c0.404,0.797,0.607,1.768,0.607,2.91v4.572H94.306z M97.807,43.644v-0.678
		c0-1.001-0.12-1.715-0.358-2.144c-0.237-0.429-0.701-0.643-1.393-0.643c-0.619,0-1.065,0.22-1.34,0.66
		c-0.273,0.441-0.41,1.149-0.41,2.126v0.678H97.807z"/>
	<path fill="#FFFFFF" d="M109.271,39.393h0.035c0.405-0.904,1.049-1.643,1.93-2.213c0.88-0.572,1.773-0.857,2.68-0.857
		c0.547,0,1.082,0.084,1.606,0.25c0.523,0.167,0.987,0.416,1.393,0.75c0.405,0.333,0.727,0.756,0.965,1.269
		c0.237,0.512,0.357,1.125,0.357,1.839v15.644h-5.43V42.537c0-1.19-0.477-1.786-1.429-1.786c-0.523,0-0.905,0.16-1.143,0.481
		c-0.238,0.323-0.357,0.757-0.357,1.305v13.536h-5.429V36.857h4.821V39.393z"/>
	<path fill="#FFFFFF" d="M133.809,47.965v1.073c0,2.714-0.625,4.654-1.875,5.821s-2.972,1.75-5.162,1.75
		c-2.214,0-3.94-0.571-5.179-1.715c-1.238-1.143-1.856-2.881-1.856-5.215v-6.036c0-1.381,0.178-2.536,0.535-3.464
		c0.357-0.929,0.852-1.68,1.482-2.25c0.631-0.572,1.375-0.982,2.231-1.232c0.857-0.251,1.799-0.375,2.823-0.375
		c1.022,0,1.964,0.124,2.821,0.375c0.856,0.25,1.595,0.66,2.215,1.232c0.619,0.57,1.1,1.326,1.446,2.268
		c0.345,0.941,0.518,2.102,0.518,3.482v0.535h-5.43v-1.678c0-0.69-0.131-1.19-0.392-1.5c-0.263-0.31-0.656-0.464-1.179-0.464
		c-0.501,0-0.899,0.148-1.197,0.445c-0.298,0.298-0.447,0.709-0.447,1.232v8.108c0,0.666,0.138,1.185,0.412,1.554
		c0.273,0.369,0.673,0.553,1.195,0.553c0.501,0,0.894-0.178,1.179-0.535c0.286-0.357,0.429-0.882,0.429-1.571v-2.395H133.809z"/>
	<path fill="#FFFFFF" d="M135.237,30.143h5.429v4.607h-5.429V30.143z M140.666,56.073h-5.429V36.857h5.429V56.073z"/>
	<path fill="#FFFFFF" d="M147.274,39.393h0.035c0.405-0.904,1.048-1.643,1.929-2.213c0.881-0.572,1.773-0.857,2.68-0.857
		c0.547,0,1.082,0.084,1.606,0.25c0.523,0.167,0.987,0.416,1.393,0.75c0.405,0.333,0.727,0.756,0.965,1.269
		c0.237,0.512,0.357,1.125,0.357,1.839v15.644h-5.43V42.537c0-1.19-0.477-1.786-1.428-1.786c-0.524,0-0.905,0.16-1.144,0.481
		c-0.237,0.323-0.357,0.757-0.357,1.305v13.536h-5.429V36.857h4.822V39.393z"/>
	<path fill="#FFFFFF" d="M171.847,36.857v19.502c0,1.214-0.184,2.221-0.553,3.018c-0.369,0.798-0.864,1.441-1.482,1.93
		c-0.619,0.487-1.34,0.827-2.161,1.018s-1.696,0.286-2.626,0.286c-2.309,0-4.102-0.441-5.374-1.322
		c-1.274-0.881-1.912-2.345-1.912-4.393h5.43v0.249c0,1.073,0.548,1.607,1.643,1.607c0.548,0,0.952-0.143,1.215-0.428
		c0.262-0.286,0.393-0.774,0.393-1.466v-3.536c-0.476,0.668-1.089,1.192-1.839,1.572c-0.75,0.382-1.542,0.572-2.376,0.572
		c-0.571,0-1.125-0.102-1.66-0.305c-0.536-0.201-1.013-0.518-1.429-0.945c-0.417-0.429-0.75-0.982-1-1.661s-0.376-1.494-0.376-2.446
		v-8.823c0-0.809,0.138-1.528,0.411-2.161c0.273-0.63,0.631-1.148,1.072-1.554c0.44-0.403,0.946-0.714,1.518-0.928
		s1.154-0.321,1.75-0.321c0.834,0,1.638,0.231,2.411,0.696c0.773,0.464,1.352,1.148,1.731,2.053v-2.214H171.847z M166.418,42.894
		c0-1.428-0.536-2.143-1.607-2.143c-1.095,0-1.643,0.715-1.643,2.143v6.072c0,1.453,0.548,2.18,1.643,2.18
		c0.523,0,0.923-0.155,1.196-0.465s0.411-0.869,0.411-1.68V42.894z"/>
</g>
</svg>
