<?xml version="1.0" encoding="utf-8"?>
<!-- Generator: Adobe Illustrator 16.0.0, SVG Export Plug-In . SVG Version: 6.00 Build 0)  -->
<!DOCTYPE svg PUBLIC "-//W3C//DTD SVG 1.1//EN" "http://www.w3.org/Graphics/SVG/1.1/DTD/svg11.dtd">
<svg version="1.1" id="Layer_1" xmlns="http://www.w3.org/2000/svg" xmlns:xlink="http://www.w3.org/1999/xlink" x="0px" y="0px"
	 width="200px" height="82.389px" viewBox="0 0 200 82.389" enable-background="new 0 0 200 82.389" xml:space="preserve">
<path fill="#FFFFFF" d="M32.348,47.073v2.679c-0.006,0.779-0.166,1.367-0.479,1.767c-0.313,0.392-0.752,0.594-1.319,0.594
	c-0.579-0.008-1.025-0.215-1.332-0.626c-0.307-0.408-0.467-0.987-0.467-1.734v-9.075c0.007-0.586,0.173-1.046,0.499-1.371
	c0.327-0.335,0.774-0.499,1.34-0.507c0.58-0.008,1.021,0.167,1.313,0.512c0.301,0.348,0.445,0.913,0.445,1.688v1.879h6.077v-0.602
	c-0.006-1.545-0.199-2.844-0.586-3.904c-0.381-1.053-0.92-1.899-1.62-2.537c-0.698-0.634-1.532-1.093-2.484-1.38
	c-0.952-0.28-1.999-0.421-3.146-0.413c-1.146-0.008-2.199,0.133-3.158,0.413c-0.96,0.287-1.8,0.739-2.505,1.371
	c-0.714,0.642-1.268,1.48-1.659,2.533c-0.388,1.053-0.588,2.346-0.595,3.877v6.758c0.007,1.731,0.321,3.173,0.954,4.319
	c0.625,1.151,1.526,2.012,2.699,2.583c1.172,0.566,2.578,0.854,4.224,0.854c1.647,0.006,3.053-0.272,4.226-0.845
	c1.18-0.574,2.079-1.487,2.705-2.732c0.625-1.248,0.939-2.881,0.945-4.899v-1.199H32.348L32.348,47.073z"/>
<path fill="#FFFFFF" d="M64.606,39.687c-0.279-0.604-0.666-1.115-1.143-1.521c-0.479-0.411-1.017-0.719-1.62-0.923
	c-0.6-0.206-1.225-0.313-1.868-0.313c-0.672,0-1.322,0.1-1.96,0.313c-0.638,0.204-1.21,0.519-1.725,0.944
	c-0.205,0.166-0.377,0.367-0.547,0.569c-0.021-0.733-0.156-1.394-0.415-1.96c-0.279-0.604-0.666-1.115-1.143-1.52
	c-0.133-0.116-0.281-0.201-0.424-0.301c-0.321-0.249-0.651-0.478-1.03-0.625c-0.551-0.214-1.123-0.321-1.714-0.321
	c-0.066,0-0.135,0.016-0.201,0.021c-0.04-0.003-0.08-0.01-0.121-0.01c-0.051,0-0.1,0.02-0.149,0.034
	c-0.438,0.04-0.877,0.119-1.323,0.276c-0.604,0.213-1.174,0.532-1.713,0.956c-0.538,0.426-1.002,0.958-1.396,1.595v-4.592
	l-5.739-1.835l0.002,25.598h6.057V40.967c0-0.311,0.034-0.583,0.1-0.827c0.067-0.24,0.168-0.451,0.306-0.624
	c0.271-0.354,0.689-0.526,1.268-0.533c0.519,0,0.918,0.16,1.188,0.485c0.267,0.331,0.405,0.83,0.405,1.509v15.097h6.059l0,0V43.456
	c0.05-0.421,0.149-0.788,0.357-1.053c0.272-0.351,0.688-0.525,1.268-0.53c0.518,0,0.918,0.158,1.189,0.484
	c0.267,0.331,0.404,0.83,0.404,1.508v12.208h6.06V41.792C65.029,40.994,64.884,40.292,64.606,39.687z"/>
<polygon fill-rule="evenodd" clip-rule="evenodd" fill="#FFFFFF" points="65.038,27.676 40.414,19.812 40.414,19.779 40.364,19.795 
	40.314,19.779 40.314,19.812 23.034,25.331 23.034,31.388 40.364,25.852 65.038,33.732 "/>
<g>
	<path fill="#FFFFFF" d="M85.146,45.93v2.394c0,2.928-0.674,5.053-2.018,6.375c-1.346,1.321-3.46,1.981-6.341,1.981
		c-2.834,0-4.935-0.66-6.304-1.981c-1.37-1.322-2.055-3.459-2.055-6.411v-11.18c0-1,0.16-1.941,0.482-2.823
		c0.321-0.88,0.822-1.647,1.501-2.303c0.679-0.654,1.541-1.172,2.59-1.554c1.046-0.38,2.308-0.571,3.785-0.571
		c1.453,0,2.702,0.191,3.75,0.571c1.049,0.382,1.911,0.904,2.591,1.571c0.677,0.666,1.183,1.44,1.517,2.321
		c0.334,0.883,0.501,1.822,0.501,2.822v1.751h-6.18v-2.322c0-0.334-0.071-0.625-0.215-0.875c-0.143-0.25-0.327-0.458-0.554-0.625
		c-0.225-0.166-0.47-0.291-0.731-0.376c-0.262-0.082-0.512-0.125-0.749-0.125c-0.525,0-1.007,0.15-1.448,0.447
		c-0.439,0.299-0.66,0.78-0.66,1.447V49.25c0,0.977,0.19,1.675,0.571,2.091c0.38,0.416,0.894,0.625,1.537,0.625
		c0.666,0,1.208-0.196,1.623-0.589c0.417-0.395,0.626-1.078,0.626-2.055V45.93H85.146z"/>
	<path fill="#FFFFFF" d="M92.075,56.073h-5.431V30.428h5.431V56.073z"/>
	<path fill="#FFFFFF" d="M93.789,43.107c0-1,0.13-1.916,0.393-2.751c0.262-0.833,0.673-1.547,1.232-2.143
		c0.56-0.595,1.273-1.06,2.144-1.393c0.868-0.334,1.923-0.499,3.161-0.499c2.476,0,4.273,0.476,5.393,1.427
		c1.119,0.953,1.679,2.323,1.679,4.108v10.965c0,0.882,0.024,1.542,0.071,1.983c0.048,0.439,0.167,0.863,0.357,1.268h-5.215
		l-0.321-2.43c-0.191,0.406-0.404,0.786-0.644,1.144c-0.238,0.357-0.53,0.667-0.874,0.929c-0.347,0.262-0.757,0.476-1.233,0.643
		c-0.477,0.166-1.047,0.25-1.715,0.25c-1.476,0-2.631-0.394-3.463-1.179c-0.835-0.785-1.251-2.13-1.251-4.035
		c0-1.453,0.292-2.613,0.876-3.483c0.582-0.868,1.457-1.601,2.625-2.196l3.715-1.894c0.618-0.309,1.047-0.601,1.285-0.874
		c0.239-0.274,0.357-0.709,0.357-1.305c0-0.404-0.125-0.762-0.376-1.071c-0.249-0.31-0.685-0.464-1.303-0.464
		c-0.62,0-1.066,0.202-1.34,0.606c-0.274,0.406-0.411,0.978-0.411,1.716v0.678H93.789z M102.361,46.536
		c-0.049,0.048-0.156,0.138-0.322,0.268c-0.166,0.132-0.369,0.275-0.606,0.429c-0.238,0.156-0.489,0.316-0.75,0.482
		c-0.263,0.167-0.501,0.31-0.715,0.43c-0.405,0.262-0.679,0.595-0.821,1c-0.144,0.403-0.215,0.881-0.215,1.428
		c0,0.667,0.114,1.144,0.34,1.43c0.226,0.285,0.612,0.428,1.161,0.428c0.644,0,1.125-0.232,1.446-0.695
		c0.321-0.465,0.482-1.198,0.482-2.198V46.536z"/>
	<path fill="#FFFFFF" d="M117.934,30.428h5.429v25.646h-4.857v-2.179c-0.5,0.93-1.173,1.613-2.018,2.053
		c-0.846,0.44-1.78,0.661-2.805,0.661c-0.595,0-1.155-0.13-1.679-0.394c-0.523-0.261-0.988-0.66-1.393-1.195
		c-0.405-0.536-0.727-1.209-0.964-2.019c-0.239-0.81-0.357-1.772-0.357-2.894V41.5c0-0.88,0.125-1.643,0.375-2.285
		c0.25-0.644,0.583-1.18,1-1.608c0.416-0.429,0.887-0.749,1.41-0.964c0.524-0.214,1.06-0.32,1.607-0.32
		c1.071,0,1.947,0.184,2.627,0.553c0.677,0.369,1.219,0.935,1.624,1.696V30.428z M116.327,40.749c-1.072,0-1.608,0.786-1.608,2.358
		v6.929c0,1.501,0.536,2.251,1.608,2.251c1.07,0,1.606-0.75,1.606-2.251v-6.929C117.934,41.535,117.397,40.749,116.327,40.749z"/>
	<path fill="#FFFFFF" d="M133.506,30.428h5.43v25.646h-4.857v-2.179c-0.501,0.93-1.174,1.613-2.019,2.053
		c-0.846,0.44-1.78,0.661-2.804,0.661c-0.596,0-1.155-0.13-1.679-0.394c-0.525-0.261-0.988-0.66-1.393-1.195
		c-0.405-0.536-0.728-1.209-0.966-2.019c-0.237-0.81-0.356-1.772-0.356-2.894V41.5c0-0.88,0.125-1.643,0.374-2.285
		c0.251-0.644,0.584-1.18,1.001-1.608s0.887-0.749,1.411-0.964c0.523-0.214,1.06-0.32,1.607-0.32c1.071,0,1.945,0.184,2.625,0.553
		c0.679,0.369,1.22,0.935,1.625,1.696V30.428z M131.898,40.749c-1.071,0-1.606,0.786-1.606,2.358v6.929
		c0,1.501,0.535,2.251,1.606,2.251c1.072,0,1.607-0.75,1.607-2.251v-6.929C133.506,41.535,132.971,40.749,131.898,40.749z"/>
	<path fill="#FFFFFF" d="M140.72,30.143h5.43v4.606h-5.43V30.143z M146.149,56.073h-5.43V36.857h5.43V56.073z"/>
	<path fill="#FFFFFF" d="M152.757,39.394h0.035c0.406-0.906,1.049-1.645,1.93-2.216c0.881-0.57,1.772-0.855,2.68-0.855
		c0.546,0,1.082,0.082,1.605,0.249c0.523,0.166,0.988,0.417,1.395,0.749c0.403,0.336,0.725,0.758,0.963,1.27
		c0.239,0.512,0.357,1.125,0.357,1.84v15.644h-5.429V42.537c0-1.191-0.476-1.788-1.428-1.788c-0.525,0-0.906,0.161-1.144,0.483
		c-0.238,0.321-0.357,0.756-0.357,1.305v13.536h-5.429V36.857h4.821V39.394z"/>
	<path fill="#FFFFFF" d="M177.33,36.857v19.501c0,1.215-0.185,2.221-0.554,3.018c-0.368,0.798-0.863,1.44-1.481,1.931
		c-0.62,0.487-1.34,0.826-2.161,1.017s-1.697,0.285-2.626,0.285c-2.309,0-4.102-0.44-5.375-1.321
		c-1.274-0.881-1.91-2.346-1.91-4.394h5.428v0.25c0,1.073,0.548,1.607,1.644,1.607c0.547,0,0.951-0.143,1.214-0.429
		c0.264-0.284,0.394-0.774,0.394-1.464v-3.536c-0.478,0.667-1.09,1.19-1.839,1.572c-0.75,0.38-1.542,0.57-2.376,0.57
		c-0.57,0-1.124-0.1-1.661-0.303c-0.536-0.202-1.013-0.518-1.429-0.947c-0.417-0.428-0.749-0.982-0.999-1.661
		c-0.25-0.677-0.375-1.493-0.375-2.446v-8.821c0-0.811,0.136-1.529,0.411-2.16c0.272-0.631,0.63-1.149,1.07-1.555
		c0.441-0.403,0.946-0.714,1.519-0.929c0.571-0.214,1.153-0.32,1.749-0.32c0.834,0,1.637,0.231,2.411,0.696
		c0.774,0.463,1.352,1.147,1.733,2.054v-2.215H177.33z M171.901,42.895c0-1.43-0.536-2.146-1.607-2.146
		c-1.096,0-1.644,0.716-1.644,2.146v6.071c0,1.451,0.548,2.178,1.644,2.178c0.524,0,0.923-0.155,1.196-0.465
		c0.273-0.308,0.411-0.867,0.411-1.677V42.895z"/>
</g>
</svg>
