<?xml version="1.0" encoding="utf-8"?>
<!-- Generator: Adobe Illustrator 16.0.0, SVG Export Plug-In . SVG Version: 6.00 Build 0)  -->
<!DOCTYPE svg PUBLIC "-//W3C//DTD SVG 1.1//EN" "http://www.w3.org/Graphics/SVG/1.1/DTD/svg11.dtd">
<svg version="1.1" id="Layer_1" xmlns="http://www.w3.org/2000/svg" xmlns:xlink="http://www.w3.org/1999/xlink" x="0px" y="0px"
	 width="200px" height="82.389px" viewBox="0 0 200 82.389" enable-background="new 0 0 200 82.389" xml:space="preserve">
<path fill="#FFFFFF" d="M41.579,47.074v2.679c-0.006,0.777-0.167,1.366-0.479,1.765c-0.313,0.394-0.752,0.595-1.319,0.595
	c-0.578-0.007-1.025-0.215-1.332-0.626c-0.308-0.406-0.467-0.987-0.467-1.733v-9.075c0.008-0.587,0.173-1.047,0.499-1.373
	c0.328-0.333,0.773-0.498,1.34-0.506c0.58-0.006,1.021,0.167,1.313,0.513c0.302,0.347,0.445,0.913,0.445,1.687v1.879h6.076v-0.601
	c-0.006-1.546-0.198-2.846-0.584-3.905c-0.381-1.052-0.92-1.899-1.619-2.538c-0.7-0.632-1.534-1.092-2.486-1.378
	c-0.953-0.279-1.999-0.421-3.146-0.414c-1.146-0.007-2.198,0.135-3.158,0.414c-0.96,0.286-1.799,0.738-2.504,1.372
	c-0.715,0.639-1.269,1.479-1.659,2.531c-0.389,1.053-0.588,2.345-0.595,3.877v6.759c0.007,1.73,0.319,3.173,0.954,4.318
	c0.625,1.151,1.525,2.011,2.698,2.584c1.172,0.566,2.578,0.854,4.224,0.854c1.647,0.005,3.054-0.274,4.226-0.847
	c1.181-0.574,2.078-1.486,2.706-2.732c0.625-1.247,0.938-2.879,0.943-4.898v-1.199H41.579L41.579,47.074z"/>
<path fill="#FFFFFF" d="M73.838,39.686c-0.279-0.602-0.665-1.114-1.143-1.521c-0.479-0.409-1.016-0.716-1.621-0.922
	c-0.598-0.205-1.224-0.313-1.867-0.313c-0.671,0-1.321,0.102-1.96,0.313c-0.637,0.206-1.209,0.519-1.725,0.945
	c-0.204,0.167-0.377,0.367-0.546,0.57c-0.022-0.734-0.156-1.395-0.417-1.96c-0.279-0.605-0.664-1.116-1.142-1.521
	c-0.132-0.113-0.281-0.201-0.425-0.3c-0.32-0.249-0.651-0.477-1.028-0.625c-0.551-0.213-1.123-0.32-1.714-0.32
	c-0.067,0-0.136,0.017-0.202,0.02c-0.039-0.001-0.08-0.01-0.12-0.01c-0.051,0-0.1,0.02-0.149,0.034
	c-0.438,0.041-0.879,0.122-1.323,0.276c-0.605,0.214-1.176,0.532-1.714,0.957s-1.001,0.957-1.396,1.594v-4.591l-5.739-1.835
	l0.002,25.597h6.058V40.968c0-0.31,0.033-0.584,0.1-0.827c0.067-0.241,0.167-0.45,0.304-0.626c0.273-0.353,0.69-0.525,1.269-0.532
	c0.519,0,0.917,0.16,1.19,0.485c0.266,0.332,0.403,0.831,0.403,1.509v15.097h6.058l0,0V43.457c0.05-0.421,0.151-0.788,0.358-1.053
	c0.271-0.353,0.689-0.525,1.268-0.531c0.519,0,0.918,0.159,1.191,0.485c0.265,0.331,0.403,0.83,0.403,1.508v12.207h6.06v-14.28
	C74.261,40.995,74.115,40.291,73.838,39.686z"/>
<polygon fill-rule="evenodd" clip-rule="evenodd" fill="#FFFFFF" points="74.271,27.675 49.646,19.81 49.646,19.778 49.597,19.794 
	49.547,19.778 49.547,19.81 32.265,25.331 32.265,31.389 49.597,25.852 74.271,33.732 "/>
<g>
	<path fill="#FFFFFF" d="M84.127,56.073h-6.179V30.429h9.715c0.952,0,1.844,0.137,2.68,0.41c0.833,0.274,1.546,0.678,2.142,1.215
		c0.595,0.535,1.065,1.209,1.411,2.019c0.346,0.809,0.519,1.749,0.519,2.821c0,0.976-0.071,1.81-0.216,2.499
		c-0.143,0.692-0.356,1.287-0.643,1.786c-0.285,0.5-0.649,0.923-1.089,1.27c-0.441,0.344-0.959,0.659-1.554,0.946
		c0.929,0.262,1.697,0.749,2.305,1.464c0.606,0.714,0.909,1.75,0.909,3.106v4.895c0,0.928,0.12,1.561,0.358,1.893
		c0.238,0.334,0.486,0.5,0.749,0.5v0.821h-5.429c-0.785,0-1.292-0.304-1.518-0.91c-0.227-0.608-0.339-1.411-0.339-2.412v-4.215
		c0-0.833-0.167-1.451-0.5-1.856c-0.334-0.405-0.989-0.608-1.964-0.608h-1.358V56.073z M84.127,41.465h1.571
		c0.762,0,1.375-0.244,1.84-0.73c0.465-0.489,0.696-1.317,0.696-2.483c0-1.144-0.239-1.966-0.714-2.465
		c-0.477-0.5-1.097-0.751-1.858-0.751h-1.535V41.465z"/>
	<path fill="#FFFFFF" d="M96.806,43.107c0-0.999,0.131-1.915,0.393-2.75c0.263-0.832,0.674-1.547,1.233-2.143
		c0.559-0.595,1.272-1.059,2.142-1.393c0.871-0.334,1.924-0.501,3.163-0.501c2.475,0,4.272,0.477,5.392,1.429
		c1.119,0.953,1.68,2.322,1.68,4.107v10.965c0,0.882,0.022,1.543,0.072,1.982c0.046,0.441,0.165,0.865,0.356,1.269h-5.215
		l-0.321-2.429c-0.191,0.406-0.406,0.786-0.643,1.144c-0.238,0.358-0.531,0.667-0.876,0.929c-0.346,0.262-0.755,0.476-1.233,0.643
		c-0.476,0.166-1.048,0.25-1.713,0.25c-1.478,0-2.632-0.393-3.465-1.178c-0.834-0.787-1.251-2.133-1.251-4.038
		c0-1.451,0.292-2.611,0.876-3.482c0.583-0.869,1.46-1.601,2.626-2.196l3.715-1.893c0.618-0.31,1.048-0.601,1.284-0.875
		c0.238-0.273,0.358-0.709,0.358-1.303c0-0.405-0.126-0.762-0.375-1.071c-0.25-0.312-0.686-0.466-1.305-0.466
		c-0.618,0-1.065,0.203-1.339,0.606c-0.274,0.405-0.411,0.978-0.411,1.714v0.68H96.806z M105.379,46.537
		c-0.047,0.049-0.156,0.137-0.321,0.269c-0.167,0.13-0.371,0.272-0.607,0.428c-0.239,0.156-0.488,0.315-0.751,0.482
		c-0.262,0.167-0.5,0.311-0.714,0.428c-0.405,0.262-0.678,0.596-0.822,1.001c-0.141,0.404-0.214,0.881-0.214,1.429
		c0,0.666,0.114,1.142,0.34,1.429s0.612,0.428,1.16,0.428c0.644,0,1.126-0.232,1.447-0.696s0.482-1.196,0.482-2.196V46.537z"/>
	<path fill="#FFFFFF" d="M113.485,30.144h5.431v4.606h-5.431V30.144z M118.916,56.073h-5.431V36.857h5.431V56.073z"/>
	<path fill="#FFFFFF" d="M127.022,56.073h-5.428V30.429h5.428V56.073z"/>
	<path fill="#FFFFFF" d="M129.701,30.144h5.429v4.606h-5.429V30.144z M135.13,56.073h-5.429V36.857h5.429V56.073z"/>
	<path fill="#FFFFFF" d="M142.632,39.393h0.035c0.404-0.903,1.048-1.643,1.929-2.214c0.882-0.57,1.773-0.857,2.679-0.857
		c0.548,0,1.083,0.084,1.606,0.251c0.524,0.166,0.989,0.415,1.394,0.749c0.405,0.334,0.727,0.757,0.965,1.27
		s0.356,1.124,0.356,1.838v15.645h-5.429V42.536c0-1.189-0.477-1.785-1.429-1.785c-0.523,0-0.905,0.16-1.144,0.481
		c-0.238,0.322-0.356,0.756-0.356,1.304v13.537h-5.429V36.857h4.822V39.393z"/>
	<path fill="#FFFFFF" d="M168.097,36.857v19.502c0,1.214-0.184,2.219-0.554,3.019c-0.368,0.798-0.863,1.44-1.481,1.928
		c-0.619,0.488-1.34,0.827-2.162,1.018c-0.82,0.191-1.695,0.287-2.624,0.287c-2.31,0-4.103-0.441-5.375-1.323
		c-1.274-0.881-1.911-2.345-1.911-4.393h5.429v0.251c0,1.07,0.547,1.606,1.643,1.606c0.547,0,0.952-0.142,1.215-0.428
		c0.263-0.285,0.393-0.774,0.393-1.466v-3.535c-0.477,0.667-1.089,1.19-1.84,1.571c-0.749,0.382-1.541,0.571-2.375,0.571
		c-0.572,0-1.124-0.102-1.661-0.303c-0.535-0.202-1.012-0.519-1.429-0.946c-0.417-0.43-0.749-0.981-0.999-1.661
		c-0.251-0.68-0.375-1.494-0.375-2.446v-8.823c0-0.809,0.137-1.529,0.409-2.161c0.274-0.63,0.633-1.148,1.072-1.554
		c0.441-0.405,0.946-0.714,1.519-0.928s1.154-0.322,1.75-0.322c0.833,0,1.637,0.232,2.41,0.696c0.773,0.465,1.352,1.15,1.732,2.054
		v-2.214H168.097z M162.668,42.894c0-1.429-0.535-2.143-1.607-2.143c-1.096,0-1.643,0.714-1.643,2.143v6.071
		c0,1.453,0.547,2.18,1.643,2.18c0.522,0,0.924-0.154,1.196-0.464c0.274-0.311,0.411-0.869,0.411-1.679V42.894z"/>
</g>
</svg>
