<?xml version="1.0" encoding="utf-8"?>
<!-- Generator: Adobe Illustrator 16.0.0, SVG Export Plug-In . SVG Version: 6.00 Build 0)  -->
<!DOCTYPE svg PUBLIC "-//W3C//DTD SVG 1.1//EN" "http://www.w3.org/Graphics/SVG/1.1/DTD/svg11.dtd">
<svg version="1.1" id="Слой_1" xmlns="http://www.w3.org/2000/svg" xmlns:xlink="http://www.w3.org/1999/xlink" x="0px" y="0px"
	 width="80px" height="80px" viewBox="0 0 80 80" enable-background="new 0 0 80 80" xml:space="preserve">
<g>
	<path d="M40.026,76.671c-20.244,0-36.714-16.472-36.714-36.716c0-20.244,16.471-36.714,36.714-36.714
		c20.244,0,36.713,16.47,36.713,36.714C76.739,60.199,60.271,76.671,40.026,76.671 M40.026,0.833
		c-21.573,0-39.121,17.551-39.121,39.122s17.548,39.123,39.121,39.123c21.571,0,39.121-17.553,39.121-39.123
		S61.598,0.833,40.026,0.833"/>
	<path d="M37.43,49.438l-2.849-3.189c-7.398,7.813-6.647,14.032-6.647,14.032C33.962,56.632,36.477,51.89,37.43,49.438"/>
	<path d="M35.557,36.094c3.417,2.158,3.01,4.803,1.872,6.814l1.936,2.164c3.554-5.429,7.494-1.675,7.494-1.675l4.545-7.029
		l-11.304-7.303L35.557,36.094z"/>
	<polygon points="48.856,57.174 24.48,29.898 22.707,31.482 47.251,58.947 48.284,58.023 49.024,57.362 	"/>
	<polygon points="57.47,26.99 53.388,32.783 53.187,32.643 57.412,26.642 57.376,26.415 56.962,26.148 56.234,26.263 56.185,26.128 
		52.218,32.023 52.015,31.885 56.079,25.846 55.949,25.493 55.423,25.151 54.735,25.229 50.806,31.11 50.6,30.973 54.652,24.913 
		54.652,24.653 54.06,24.271 53.355,24.394 49.565,30.305 49.358,30.172 53.173,24.221 53.008,23.592 52.573,23.309 51.991,23.436 
		48.188,29.415 47.979,29.283 51.899,23.12 51.905,22.878 50.645,22.064 50.584,22.057 46.568,28.368 46.361,28.234 50.39,21.9 
		49.482,21.311 49.358,21.311 45.432,27.631 45.225,27.502 49.148,21.183 49.127,21.083 48.566,20.72 48.093,20.698 44.192,26.831 
		43.982,26.697 47.881,20.572 47.778,20.211 47.198,19.836 46.982,19.83 43.368,26.291 43.152,26.17 46.723,19.792 46.735,19.536 
		46.382,19.308 45.646,19.599 40.787,28.393 51.995,35.54 57.967,27.181 57.498,27.177 	"/>
</g>
</svg>
