<?xml version="1.0" encoding="utf-8"?>
<!-- Generator: Adobe Illustrator 16.0.0, SVG Export Plug-In . SVG Version: 6.00 Build 0)  -->
<!DOCTYPE svg PUBLIC "-//W3C//DTD SVG 1.1//EN" "http://www.w3.org/Graphics/SVG/1.1/DTD/svg11.dtd">
<svg version="1.1" id="Слой_1" xmlns="http://www.w3.org/2000/svg" xmlns:xlink="http://www.w3.org/1999/xlink" x="0px" y="0px"
	 width="80px" height="80px" viewBox="0 0 80 80" enable-background="new 0 0 80 80" xml:space="preserve">
<g>
	<polygon fill-rule="evenodd" clip-rule="evenodd" points="66.95,56.078 48.948,56.029 45.486,40.712 53.632,45.492 57.88,40.368 
		62.266,45.492 70.461,40.665 	"/>
	<polygon fill-rule="evenodd" clip-rule="evenodd" points="32.314,56.078 14.315,56.029 10.852,40.712 18.997,45.492 23.244,40.368 
		27.633,45.492 35.826,40.665 	"/>
	<polygon fill-rule="evenodd" clip-rule="evenodd" points="49.682,31.832 31.681,31.779 28.218,16.465 36.363,21.246 40.611,16.122 
		44.998,21.246 53.193,16.417 	"/>
	<path d="M39.989,77.027C19.572,77.027,2.962,60.416,2.962,40S19.572,2.974,39.989,2.974c20.416,0,37.023,16.61,37.023,37.026
		S60.405,77.027,39.989,77.027 M39.989,0.545C18.232,0.545,0.535,18.246,0.535,40s17.698,39.455,39.455,39.455
		c21.754,0,39.454-17.701,39.454-39.455S61.743,0.545,39.989,0.545"/>
</g>
</svg>
