<?xml version="1.0" encoding="utf-8"?>
<!-- Generator: Adobe Illustrator 16.0.0, SVG Export Plug-In . SVG Version: 6.00 Build 0)  -->
<!DOCTYPE svg PUBLIC "-//W3C//DTD SVG 1.1//EN" "http://www.w3.org/Graphics/SVG/1.1/DTD/svg11.dtd">
<svg version="1.1" id="Слой_1" xmlns="http://www.w3.org/2000/svg" xmlns:xlink="http://www.w3.org/1999/xlink" x="0px" y="0px"
	 width="80px" height="80px" viewBox="0 0 80 80" enable-background="new 0 0 80 80" xml:space="preserve">
<path d="M40.354,76.244c-20.132,0-36.512-16.381-36.512-36.513c0-20.133,16.379-36.512,36.512-36.512
	c20.132,0,36.513,16.379,36.513,36.512C76.867,59.863,60.486,76.244,40.354,76.244 M40.354,0.826
	c-21.454,0-38.905,17.454-38.905,38.906s17.452,38.905,38.905,38.905c21.451,0,38.906-17.453,38.906-38.905
	S61.806,0.826,40.354,0.826"/>
<path d="M47.978,54.321c-3.129,3.421-6.274,4.662-7.6,5.059c-6.829-2.641-11.588-8.511-14.152-17.463
	c-1.192-4.168-1.87-8.96-1.952-13.716c7.4-1.055,13.232-3.848,15.989-5.379c5.361,3.197,12.073,4.651,15.743,5.246
	C55.875,39.666,53.117,48.706,47.978,54.321 M40.332,19.308c0,0-8.074,5.383-19.03,6.216c0.064,0.127-1.859,29.857,18.903,36.969
	c0,0,19.477-3.14,18.772-37.035C58.977,25.458,47.444,24.369,40.332,19.308"/>
<path d="M45.771,41.148c-0.59-0.538-1.248-0.921-1.928-1.159c0,0-3.842-0.987-5.869-2.403l-0.05,0.043
	c0.402,2.602-0.402,6.396-0.402,6.396c-0.207,1.808,0.477,3.768,1.957,5.112c2.244,2.043,5.472,1.907,7.21-0.297
	C48.427,46.631,48.016,43.189,45.771,41.148"/>
<path d="M33.701,38.122c0,0-2.034-0.522-3.109-1.272l-0.027,0.021c0.213,1.378-0.212,3.388-0.212,3.388
	c-0.108,0.959,0.253,1.997,1.038,2.708c1.188,1.082,2.898,1.013,3.818-0.157c0.92-1.168,0.704-2.992-0.485-4.074
	C34.41,38.451,34.06,38.247,33.701,38.122"/>
<path d="M48.135,38.13c1.217-1.544,0.929-3.955-0.642-5.385c-0.411-0.376-0.875-0.644-1.351-0.812c0,0-2.688-0.689-4.106-1.681
	l-0.035,0.03c0.279,1.82-0.281,4.476-0.281,4.476c-0.146,1.268,0.332,2.638,1.37,3.581C44.658,39.769,46.921,39.675,48.135,38.13"/>
</svg>
