<?xml version="1.0" encoding="utf-8"?>
<!-- Generator: Adobe Illustrator 16.0.0, SVG Export Plug-In . SVG Version: 6.00 Build 0)  -->
<!DOCTYPE svg PUBLIC "-//W3C//DTD SVG 1.1//EN" "http://www.w3.org/Graphics/SVG/1.1/DTD/svg11.dtd">
<svg version="1.1" id="Слой_1" xmlns="http://www.w3.org/2000/svg" xmlns:xlink="http://www.w3.org/1999/xlink" x="0px" y="0px"
	 width="80px" height="80px" viewBox="0 0 80 80" enable-background="new 0 0 80 80" xml:space="preserve">
<path d="M40,76.872C19.669,76.872,3.129,60.331,3.129,40C3.129,19.671,19.669,3.13,40,3.13c20.33,0,36.867,16.541,36.867,36.87
	C76.867,60.331,60.33,76.872,40,76.872 M40,0.712C18.337,0.712,0.712,18.338,0.712,40c0,21.663,17.625,39.288,39.288,39.288
	c21.662,0,39.288-17.625,39.288-39.288C79.288,18.338,61.662,0.712,40,0.712"/>
<path d="M53.205,52.974c-1.085,1.238-2.092,2.117-3.169,2.766c-0.654,0.391-1.289,0.621-1.946,0.705
	c-2.48,0.309-4.44,0.889-6.17,1.822c-0.535,0.291-1.129,0.434-1.814,0.434c-0.33,0-0.68-0.033-1.134-0.102
	c-5.066-0.766-9.344-3.289-12.709-7.492c-0.165-0.207-0.331-0.414-0.499-0.617c-1.123-1.383-2.285-2.816-2.971-4.57
	c-0.694-1.777-0.723-3.25-0.089-4.635c0.312-0.686,0.312-1.405-0.004-2.142c-0.658-1.54-0.504-3.09,0.471-4.74
	c0.749-1.265,1.554-2.521,2.33-3.736c0.316-0.492,0.629-0.983,0.941-1.477l0.222-0.312l0.272-0.424
	c0.82-2.137,2.204-3.176,4.229-3.176l0.076,0.002c0.478,0,0.939-0.405,1.372-0.82c1.608-1.541,3.704-2.119,6.25-1.717
	c0.548,0.085,0.961,0.125,1.343,0.125c0.684,0,1.258-0.131,1.803-0.411c0.466-0.242,0.947-0.359,1.465-0.359
	c0.501,0,1.022,0.108,1.64,0.339c3.765,1.4,6.517,3.421,8.412,6.176c0.155,0.224,0.332,0.478,0.511,0.572
	c2.294,1.19,2.884,3.294,3.156,5.195c0.115,0.801,0.342,1.574,0.58,2.393c0.406,1.389,0.824,2.825,0.649,4.383
	C58.756,46.183,55.904,49.892,53.205,52.974 M61.897,35.833c-0.883-0.664-1.505-1.563-2.018-2.916
	c-0.383-1.017-0.633-2.074-0.874-3.096c-0.044-0.183-0.087-0.366-0.131-0.552c-0.616-2.557-1.902-4.15-4.052-5.018
	c-1.885-0.76-3.466-1.832-4.702-3.185c-0.537-0.59-1.31-0.822-2.128-1.068l-0.024-0.008c-0.696-0.209-1.429-0.366-2.138-0.518
	c-1.361-0.291-2.766-0.591-4.048-1.279c-0.5-0.269-0.959-0.399-1.407-0.399c-0.451,0-0.907,0.132-1.396,0.404l-0.05,0.029
	c-0.965,0.536-1.961,1.091-3.177,1.1c-2.735,0.02-5.404,0.878-8.65,2.777c-0.842,0.496-1.733,1.147-1.937,2.23
	c-0.308,1.629-1.372,2.612-2.348,3.405c-1.717,1.401-2.625,3.109-2.689,5.077c-0.04,1.246-0.461,2.178-1.323,2.93
	c-0.769,0.671-0.994,1.454-0.727,2.538c0.672,2.737,1.035,5.217,1.109,7.579c0.076,2.428,0.837,4.006,2.398,4.977
	c0.841,0.523,1.312,1.313,1.325,2.225c0.026,1.799,0.922,3.094,2.815,4.08l0.375,0.195c1.309,0.68,2.662,1.385,4.033,1.975
	c3.708,1.602,6.824,2.824,10.338,2.824c0.393,0,0.788-0.018,1.175-0.049c0.176-0.016,0.431-0.041,0.728-0.07
	c0.875-0.088,2.098-0.209,2.641-0.188l0.058,0.004c0.205,0.006,0.417,0.016,0.617,0.016c0.65,0,1.319-0.078,1.821-0.643
	c1.297-1.457,3.033-2.557,5.307-3.367c2.015-0.717,3.546-2.045,4.682-4.057c0.311-0.549,0.654-1.082,0.988-1.596
	c0.335-0.514,0.679-1.045,0.979-1.58c1.72-3.066,3.229-6.109,2.839-9.648c-0.112-1.001,0.109-1.962,0.34-2.77
	C62.931,37.198,62.686,36.424,61.897,35.833"/>
<path d="M51.841,49.979l-0.396,0.457c-0.189,0.211-0.369,0.41-0.52,0.625c-1.256,1.789-2.853,2.813-4.879,3.133
	c-2.122,0.336-3.935,0.869-5.543,1.623c-0.365,0.17-0.763,0.254-1.219,0.254c-0.442,0-0.873-0.078-1.275-0.156
	c-2.703-0.537-4.947-1.588-6.86-3.219c-1.966-1.672-3.981-3.547-5.419-5.93c-0.936-1.549-1.754-3.43-0.722-5.611
	c0.242-0.509,0.248-1.125,0.021-1.692c-0.769-1.915-0.159-3.578,0.539-4.952c0.562-1.106,1.287-2.108,1.99-3.079
	c0.618-0.854,1.259-1.739,1.767-2.672c0.413-0.758,1.235-0.964,1.816-1.053c1.021-0.155,1.917-0.537,2.663-1.132
	c1.057-0.844,2.292-1.271,3.672-1.271c0.492,0,1.012,0.053,1.55,0.159c0.336,0.068,0.639,0.101,0.922,0.101
	c0.475,0,0.9-0.093,1.303-0.286c0.569-0.27,1.168-0.408,1.779-0.408c0.673,0,1.378,0.162,2.153,0.493
	c1.807,0.775,3.417,2.047,4.923,3.884c0.812,0.988,1.576,1.924,2.684,2.492c0.637,0.326,1.059,0.838,1.188,1.441
	c0.439,2.046,0.854,4.075,1.22,5.864c0.115,0.566,0.225,1.104,0.329,1.603l0.008,0.075C55.585,44.964,53.738,47.622,51.841,49.979
	 M56.444,39.104c-0.113-0.483-0.23-0.962-0.348-1.444c-0.338-1.378-0.686-2.803-0.913-4.232c-0.192-1.2-0.54-2.029-1.691-2.458
	c-0.699-0.259-1.15-0.844-1.515-1.315c-2.095-2.707-4.315-4.407-6.991-5.354c-0.679-0.24-1.234-0.352-1.748-0.352
	c-0.435,0-0.84,0.082-1.242,0.246c-1.057,0.433-2.153,0.539-3.405,0.329c-0.339-0.058-0.681-0.087-1.013-0.087
	c-1.204,0-2.348,0.368-3.402,1.095c-1.075,0.743-2.266,1.474-3.678,1.796c-0.566,0.131-1.039,0.458-1.298,0.9
	c-0.566,0.966-1.211,1.896-1.835,2.795c-1.01,1.459-2.056,2.97-2.761,4.63c-0.451,1.063-0.51,1.975-0.183,2.873
	c0.375,1.028,0.406,2.061,0.087,2.991c-0.624,1.813-0.366,3.594,0.763,5.293c3.924,5.908,8.021,8.936,13.281,9.82
	c0.474,0.08,0.937,0.15,1.377,0.15c0.558,0,1.003-0.111,1.405-0.355c1.127-0.674,2.426-1.145,3.859-1.395
	c3.74-0.652,6.177-2.195,7.668-4.857c0.101-0.18,0.232-0.328,0.35-0.459l0.198-0.238c1.6-2.232,3.41-4.762,3.333-8.076l-0.003-0.018
	l0.003-0.02C56.789,40.69,56.626,39.878,56.444,39.104"/>
<path d="M45.544,51.507c-1.308,0.303-3.021,0.729-4.687,1.359c-0.533,0.199-1.093,0.303-1.661,0.303
	c-0.911,0-1.852-0.248-2.959-0.777c-2.531-1.213-4.714-3.07-6.672-5.678c-1.036-1.383-2.009-3.109-1.358-5.453
	c0.094-0.338,0.103-0.712,0.024-0.975c-0.975-3.225,0.809-5.573,2.383-7.645c0.204-0.271,0.408-0.536,0.603-0.805
	c0.898-1.223,2.257-1.947,3.57-2.646c0.593-0.316,1.206-0.641,1.753-1.004l0.499-0.115c0.611,0.076,1.28,0.113,2.049,0.113
	c0.674,0,1.365-0.028,2.032-0.054c0.675-0.029,1.372-0.057,2.06-0.057c0.554,0,1.048,0.019,1.51,0.055
	c1.123,0.09,1.951,0.776,2.75,1.439l0.264,0.218c3.489,2.844,5.351,6.775,5.696,12.02v0.027
	C53.396,45.726,49.433,50.608,45.544,51.507 M53.546,39.309c-0.523-2.72-1.021-5.287-3.231-7.348
	c-1.782-1.661-3.721-3.389-6.103-4.631c-0.529-0.276-0.966-0.319-1.407-0.139c-1.438,0.586-2.979,0.674-4.614,0.26
	c-0.308-0.078-0.606-0.117-0.888-0.117c-0.609,0-1.161,0.186-1.643,0.553c-0.648,0.495-1.355,0.884-2.042,1.262
	c-0.393,0.217-0.801,0.442-1.185,0.68c-3.161,1.966-4.62,5.165-5.539,7.733c-0.115,0.325-0.05,0.72,0.022,1.136l0.036,0.222
	c0.211,1.327,0.368,2.634-0.028,3.987c-0.248,0.848-0.1,1.711,0.44,2.564c2.352,3.713,4.916,6.184,8.07,7.773
	c1.258,0.635,2.398,0.963,3.689,1.059l0.267-0.045c0.278-0.045,0.624-0.098,0.92-0.219c2.084-0.859,4.272-1.473,6.683-1.879
	c0.507-0.086,0.95-0.291,1.316-0.613c3.04-2.652,4.873-5.561,5.608-8.891c0.092-0.42,0.17-0.82,0.092-1.131
	C53.832,40.79,53.687,40.037,53.546,39.309"/>
<path d="M49.433,45.077c-0.365,0.482-0.742,0.965-1.107,1.43c-0.389,0.496-0.794,1.01-1.177,1.521
	c-0.488,0.652-1.144,1.035-1.892,1.109c-0.83,0.078-1.61,0.314-2.438,0.566c-0.326,0.098-0.66,0.199-0.997,0.289
	c-0.887,0.24-1.764,0.361-2.604,0.361c-2.812,0-5.207-1.334-6.923-3.859c-0.98-1.445-1.919-3.215-1.436-5.385
	c0.045-0.203,0.017-0.465-0.011-0.716l-0.014-0.115c-0.3-2.848,0.838-5.26,3.48-7.373c2.281-1.824,4.976-1.888,7.582-1.949
	l0.309-0.007c0.249-0.045,0.495-0.068,0.731-0.068c1.582,0,2.678,0.999,3.542,1.973c2.213,2.504,3.444,4.914,3.877,7.583
	C50.669,42.382,50.386,43.813,49.433,45.077 M51.204,41.458c-0.074-3.895-1.233-6.35-4.769-10.104
	c-1.053-1.117-2.257-1.595-4.022-1.595l-0.44,0.009L41.8,29.776c-2.793,0.112-5.432,0.218-7.861,1.957
	c-1.705,1.221-2.986,2.83-4.152,5.21c-0.163,0.329-0.099,0.752-0.005,1.163c0.347,1.551,0.298,3.059-0.149,4.487
	c-0.167,0.531-0.146,0.836,0.076,1.125c0.323,0.422,0.637,0.859,0.939,1.281c0.99,1.373,1.923,2.67,3.25,3.674
	c1.597,1.209,3.185,2.293,5.039,2.293c0.44,0,0.889-0.061,1.334-0.186c0.757-0.211,1.531-0.414,2.277-0.611
	c1.082-0.285,2.202-0.58,3.292-0.9c0.645-0.189,1.255-0.402,1.651-0.916l0.305-0.389c0.818-1.053,1.665-2.141,2.445-3.244
	c0.732-1.035,1.064-2.152,0.965-3.23L51.204,41.458z"/>
<path d="M48.309,40.78c-0.325-1.999-1.254-3.641-2.392-5.1c0.603,0.824,1.059,1.842,1.325,3.014
	c0.975,4.289-0.158,6.273-4.494,7.867c-0.562,0.205-1.121,0.371-1.666,0.494c-0.5,0.113-1.006,0.17-1.505,0.17
	c-1.699,0-3.279-0.652-4.451-1.838c-1.198-1.217-1.848-2.873-1.825-4.668c-0.027-2.319,0.617-4.164,1.916-5.476
	c1.264-1.278,3.077-1.955,5.242-1.955c0.692,0,1.412,0.072,2.142,0.209c1.142,0.22,2.146,0.819,2.946,1.722
	c-0.51-0.617-1.055-1.202-1.599-1.773c-0.372-0.389-0.911-0.577-1.42-0.491c-0.539,0.092-1.073,0.1-1.531,0.1l-0.532-0.002
	c-0.494,0-0.905,0.013-1.307,0.076c-4.137,0.646-5.942,2.191-6.433,5.509c-0.11,0.741-0.168,1.506-0.225,2.25
	c-0.03,0.395-0.06,0.805-0.098,1.207c-0.123,1.287,0.476,2.764,1.646,4.051c1.421,1.563,3.405,2.574,5.055,2.574
	c0.416,0,0.807-0.064,1.158-0.193c1.08-0.389,2.21-0.66,3.303-0.92c0.347-0.084,0.694-0.168,1.04-0.254
	c0.459-0.117,0.832-0.371,1.138-0.787l0.089-0.119c0.628-0.844,1.275-1.717,1.859-2.605c0.48-0.732,0.72-1.525,0.694-2.301
	l-0.025-0.289C48.344,41.079,48.332,40.925,48.309,40.78"/>
<path d="M44.625,42.327c-0.364,0.824-1.225,1.389-2.969,1.949c-0.177,0.057-0.354,0.121-0.539,0.188
	c-0.589,0.213-1.196,0.434-1.854,0.434c-0.499,0-0.956-0.127-1.398-0.385c-1.454-0.854-2.112-2.18-1.906-3.844
	c0.005-2.696,0.648-3.652,2.739-4.091c0.716-0.15,1.319-0.224,1.847-0.224c1.672,0,2.725,0.739,3.515,2.466
	C44.823,40.489,44.988,41.503,44.625,42.327 M40.148,35.516l-0.164,0.004c-3.466,0.126-4.934,1.658-4.905,5.122l-0.007,0.43
	c-0.009,0.301-0.018,0.582,0.011,0.855c0.168,1.578,2.377,3.67,3.874,3.67l0.188-0.014c2.123-0.291,3.832-0.906,5.224-1.881
	c0.775-0.541,1.151-1.063,1.254-1.738c0.229-1.519-0.281-3.139-1.401-4.439C43.121,36.249,41.639,35.516,40.148,35.516"/>
<path d="M39.778,38.211h-0.068c-1.389,0-2.229,0.856-2.247,2.292c-0.011,0.852,0.248,1.65,0.676,2.084
	c0.207,0.207,0.431,0.313,0.669,0.313l0.078-0.004c3.5-0.328,3.508-1.646,3.51-2.078C42.403,39.432,41.204,38.24,39.778,38.211"/>
</svg>
