<?xml version="1.0" encoding="utf-8"?>
<!-- Generator: Adobe Illustrator 16.0.0, SVG Export Plug-In . SVG Version: 6.00 Build 0)  -->
<!DOCTYPE svg PUBLIC "-//W3C//DTD SVG 1.1//EN" "http://www.w3.org/Graphics/SVG/1.1/DTD/svg11.dtd">
<svg version="1.1" id="Слой_1" xmlns="http://www.w3.org/2000/svg" xmlns:xlink="http://www.w3.org/1999/xlink" x="0px" y="0px"
	 width="80px" height="80px" viewBox="0 0 80 80" enable-background="new 0 0 80 80" xml:space="preserve">
<path d="M40.228,77.071c-20.349,0-36.906-16.556-36.906-36.904S19.879,3.261,40.228,3.261c20.348,0,36.904,16.557,36.904,36.906
	S60.576,77.071,40.228,77.071 M40.228,0.843c-21.683,0-39.324,17.641-39.324,39.324c0,21.681,17.641,39.324,39.324,39.324
	c21.684,0,39.324-17.644,39.324-39.324C79.552,18.483,61.912,0.843,40.228,0.843"/>
<text transform="matrix(1 0 0 1 19.3252 47.2861)" font-family="'Arial-BoldMT'" font-size="35.9262">10</text>
<g>
	<polygon points="21.65,53.373 23.889,57.115 23.889,60.359 25.44,60.359 25.44,57.115 28.307,52.306 26.556,52.306 25.786,53.584 
		24.659,55.606 24.647,55.606 23.542,53.594 22.783,52.306 21.816,52.306 21.01,52.306 	"/>
	<polygon points="34.83,58.863 30.664,58.863 30.664,57.148 34.15,57.148 34.15,55.699 30.664,55.699 30.664,53.801 34.747,53.801 
		34.747,52.306 29.052,52.306 29.052,60.359 34.83,60.359 	"/>
	<path d="M38.038,57.034l1.047-3.302l1.072,3.302H38.038z M38.27,52.133l-3.017,8.227h1.707l0.688-2.037h2.899l0.69,2.037h1.705
		l-3.015-8.227H38.27z"/>
	<path d="M47.963,55.559c-0.148,0.147-0.331,0.246-0.524,0.246h-2.047v-2.001h1.54c0.499,0,1.057,0.088,1.281,0.529
		c0.061,0.122,0.1,0.266,0.1,0.446C48.313,55.06,48.171,55.357,47.963,55.559 M50.211,60.36l-1.829-3.292
		c0.934-0.379,1.52-1.3,1.52-2.289c0-0.949-0.55-1.77-1.338-2.185c-0.342-0.178-0.718-0.289-1.125-0.289H43.78v8.055h1.611v-3.106
		h1.345l0.636,1.225l0.976,1.882H50.211z"/>
	<path d="M53.847,59.105c-0.978,0-1.865-0.356-2.312-0.575l-0.59,1.288c0.415,0.231,1.497,0.714,2.913,0.714
		c1.921,0,3.119-0.896,3.119-2.428c0-2.889-4.35-2.163-4.35-3.669c0-0.544,0.552-0.877,1.413-0.877c1.025,0,2.072,0.46,2.072,0.46
		l0.563-1.277c-0.526-0.253-1.574-0.607-2.713-0.607c-1.83,0-2.947,0.918-2.947,2.426c0,3.006,4.359,2.188,4.359,3.673
		C55.375,58.784,54.791,59.105,53.847,59.105"/>
</g>
</svg>
