<?xml version="1.0" encoding="utf-8"?>
<!-- Generator: Adobe Illustrator 16.0.0, SVG Export Plug-In . SVG Version: 6.00 Build 0)  -->
<!DOCTYPE svg PUBLIC "-//W3C//DTD SVG 1.1//EN" "http://www.w3.org/Graphics/SVG/1.1/DTD/svg11.dtd">
<svg version="1.1" id="Layer_1" xmlns="http://www.w3.org/2000/svg" xmlns:xlink="http://www.w3.org/1999/xlink" x="0px" y="0px"
	 width="200px" height="82.389px" viewBox="0 0 200 82.389" enable-background="new 0 0 200 82.389" xml:space="preserve">
<path fill="#FFFFFF" d="M50.41,47.204v2.679c-0.005,0.778-0.165,1.366-0.479,1.765c-0.313,0.393-0.753,0.595-1.318,0.595
	c-0.58-0.008-1.027-0.215-1.332-0.626c-0.308-0.407-0.469-0.986-0.469-1.733v-9.074c0.008-0.588,0.173-1.048,0.5-1.373
	c0.327-0.334,0.773-0.5,1.34-0.508c0.579-0.006,1.021,0.168,1.313,0.514c0.301,0.348,0.444,0.912,0.444,1.686v1.879h6.078v-0.601
	c-0.007-1.544-0.2-2.845-0.586-3.905c-0.38-1.052-0.92-1.897-1.619-2.537c-0.698-0.632-1.532-1.091-2.485-1.379
	c-0.952-0.278-2-0.42-3.146-0.414c-1.146-0.006-2.199,0.136-3.158,0.414c-0.96,0.288-1.8,0.739-2.504,1.372
	c-0.716,0.641-1.269,1.479-1.659,2.533c-0.389,1.052-0.588,2.346-0.596,3.876v6.759c0.008,1.731,0.321,3.173,0.954,4.318
	c0.625,1.15,1.526,2.012,2.698,2.584c1.172,0.566,2.579,0.853,4.226,0.853c1.646,0.006,3.051-0.272,4.225-0.846
	c1.18-0.574,2.079-1.484,2.705-2.732c0.626-1.247,0.938-2.879,0.945-4.896v-1.2H50.41L50.41,47.204z"/>
<path fill="#FFFFFF" d="M82.67,39.816c-0.28-0.604-0.666-1.115-1.143-1.521c-0.479-0.41-1.016-0.717-1.62-0.922
	c-0.6-0.206-1.226-0.313-1.869-0.313c-0.67,0-1.32,0.101-1.959,0.313c-0.637,0.205-1.209,0.518-1.725,0.943
	c-0.203,0.166-0.378,0.367-0.547,0.571c-0.022-0.735-0.156-1.394-0.416-1.961c-0.279-0.604-0.665-1.115-1.143-1.521
	c-0.132-0.114-0.281-0.2-0.424-0.3c-0.32-0.249-0.65-0.477-1.029-0.624c-0.551-0.214-1.123-0.321-1.713-0.321
	c-0.067,0-0.136,0.017-0.202,0.021c-0.04-0.003-0.08-0.012-0.12-0.012c-0.052,0-0.101,0.021-0.15,0.035
	c-0.438,0.041-0.878,0.12-1.323,0.277c-0.604,0.211-1.174,0.532-1.714,0.956c-0.537,0.425-1.001,0.958-1.396,1.594V32.44
	l-5.738-1.833l0.002,25.596h6.058V41.098c0-0.311,0.032-0.583,0.1-0.827c0.066-0.242,0.168-0.451,0.304-0.626
	c0.272-0.352,0.69-0.524,1.269-0.532c0.519,0,0.917,0.16,1.189,0.484c0.266,0.333,0.405,0.832,0.405,1.51v15.097h6.058l0,0V43.587
	c0.049-0.421,0.151-0.788,0.356-1.054c0.272-0.351,0.69-0.523,1.269-0.53c0.519,0,0.918,0.159,1.189,0.484
	c0.267,0.332,0.405,0.829,0.405,1.508v12.208h6.059V41.922C83.093,41.125,82.948,40.421,82.67,39.816z"/>
<polygon fill-rule="evenodd" clip-rule="evenodd" fill="#FFFFFF" points="83.102,27.805 58.478,19.94 58.478,19.909 58.429,19.925 
	58.379,19.909 58.379,19.94 41.096,25.461 41.096,31.518 58.429,25.982 83.102,33.862 "/>
<g>
	<path fill="#FFFFFF" d="M91.245,30.558l1.249,13.359c0.048,0.476,0.083,1.06,0.107,1.75c0.023,0.69,0.048,1.404,0.071,2.143
		s0.047,1.446,0.071,2.125c0.023,0.679,0.048,1.244,0.071,1.697h0.072c0.07-0.81,0.13-1.619,0.178-2.43
		c0.048-0.81,0.095-1.554,0.143-2.231c0.048-0.679,0.09-1.281,0.125-1.805c0.037-0.523,0.078-0.904,0.125-1.142l2.108-13.467h5.643
		l1.894,13.359c0.07,0.452,0.13,0.988,0.178,1.606c0.048,0.621,0.09,1.268,0.125,1.947c0.037,0.679,0.065,1.368,0.09,2.071
		c0.023,0.703,0.06,1.352,0.107,1.947h0.071c0.023-0.524,0.047-1.126,0.071-1.805c0.023-0.679,0.054-1.369,0.09-2.071
		c0.035-0.702,0.071-1.376,0.106-2.018c0.036-0.644,0.077-1.203,0.125-1.679l1.465-13.359h5.68l-4.321,25.646h-6.717l-1.392-12.645
		c-0.049-0.333-0.091-0.839-0.126-1.518s-0.077-1.422-0.125-2.232c-0.048-0.809-0.089-1.636-0.125-2.481
		c-0.035-0.846-0.065-1.602-0.09-2.269h-0.07c-0.048,0.834-0.096,1.69-0.145,2.571c-0.047,0.882-0.101,1.71-0.16,2.483
		c-0.059,0.773-0.111,1.47-0.16,2.089c-0.048,0.62-0.084,1.071-0.106,1.356l-1.571,12.645h-6.502l-4.321-25.646H91.245z"/>
	<path fill="#FFFFFF" d="M119.425,36.451c1,0,1.929,0.125,2.785,0.375c0.858,0.25,1.602,0.661,2.233,1.232
		c0.631,0.572,1.119,1.328,1.464,2.268c0.346,0.941,0.519,2.103,0.519,3.482v5.536c0,1.382-0.173,2.543-0.519,3.482
		c-0.345,0.941-0.828,1.704-1.446,2.286c-0.619,0.585-1.357,1.001-2.214,1.251c-0.858,0.25-1.798,0.375-2.822,0.375
		c-1.023,0-1.965-0.125-2.821-0.375c-0.858-0.25-1.603-0.661-2.233-1.232c-0.63-0.572-1.124-1.328-1.481-2.268
		c-0.357-0.941-0.535-2.103-0.535-3.482v-5.608c0-1.381,0.178-2.536,0.535-3.464c0.357-0.93,0.846-1.679,1.465-2.251
		c0.618-0.571,1.362-0.982,2.232-1.232C117.455,36.576,118.401,36.451,119.425,36.451z M119.425,40.702
		c-0.548,0-0.959,0.178-1.231,0.535c-0.274,0.357-0.412,0.846-0.412,1.465v7.858c0,0.689,0.149,1.202,0.447,1.535
		s0.696,0.5,1.196,0.5c0.477,0,0.857-0.167,1.143-0.5c0.287-0.333,0.43-0.809,0.43-1.43v-7.964
		C120.997,41.368,120.473,40.702,119.425,40.702z"/>
	<path fill="#FFFFFF" d="M135.604,36.451c1,0,1.929,0.125,2.786,0.375c0.856,0.25,1.602,0.661,2.232,1.232
		c0.631,0.572,1.119,1.328,1.465,2.268c0.345,0.941,0.517,2.103,0.517,3.482v5.536c0,1.382-0.172,2.543-0.517,3.482
		c-0.346,0.941-0.828,1.704-1.447,2.286c-0.62,0.585-1.357,1.001-2.215,1.251c-0.856,0.25-1.798,0.375-2.821,0.375
		c-1.024,0-1.964-0.125-2.822-0.375c-0.856-0.25-1.601-0.661-2.231-1.232c-0.631-0.572-1.126-1.328-1.483-2.268
		c-0.356-0.941-0.534-2.103-0.534-3.482v-5.608c0-1.381,0.178-2.536,0.534-3.464c0.357-0.93,0.846-1.679,1.465-2.251
		c0.619-0.571,1.363-0.982,2.232-1.232S134.58,36.451,135.604,36.451z M135.604,40.702c-0.549,0-0.959,0.178-1.232,0.535
		s-0.41,0.846-0.41,1.465v7.858c0,0.689,0.147,1.202,0.445,1.535s0.698,0.5,1.197,0.5c0.477,0,0.857-0.167,1.144-0.5
		c0.285-0.333,0.428-0.809,0.428-1.43v-7.964C137.176,41.368,136.652,40.702,135.604,40.702z"/>
	<path fill="#FFFFFF" d="M153.356,30.558h5.429v25.646h-4.857v-2.18c-0.5,0.93-1.173,1.614-2.019,2.055
		c-0.846,0.439-1.78,0.661-2.804,0.661c-0.596,0-1.155-0.132-1.678-0.393c-0.525-0.263-0.988-0.661-1.395-1.196
		c-0.405-0.537-0.726-1.21-0.964-2.019c-0.237-0.811-0.357-1.774-0.357-2.894v-8.607c0-0.881,0.125-1.645,0.376-2.286
		c0.25-0.643,0.583-1.179,0.999-1.607c0.417-0.429,0.888-0.75,1.411-0.964c0.523-0.215,1.06-0.322,1.607-0.322
		c1.072,0,1.946,0.186,2.626,0.555c0.679,0.368,1.22,0.935,1.625,1.696V30.558z M151.749,40.88c-1.071,0-1.607,0.786-1.607,2.357
		v6.929c0,1.501,0.536,2.252,1.607,2.252s1.607-0.751,1.607-2.252v-6.929C153.356,41.666,152.82,40.88,151.749,40.88z"/>
</g>
<g>
	<path fill="#FFFFFF" d="M89.595,59.415v10.658h69.25V59.415H89.595z M124.434,62.521h-2.204v5.993h-1.481v-5.993h-2.174v-1.2h5.859
		V62.521z M129.77,68.515h-1.429v-3.384c0-0.307-0.065-0.532-0.196-0.681c-0.133-0.146-0.351-0.219-0.657-0.219
		c-0.419,0-0.723,0.161-0.91,0.484v3.799h-1.427v-7.588h1.427v2.825c0.38-0.455,0.855-0.682,1.429-0.682
		c1.159,0,1.747,0.674,1.764,2.02V68.515z M135.505,66.307h-3.404c0.047,0.349,0.186,0.628,0.418,0.84
		c0.232,0.211,0.526,0.316,0.882,0.316c0.551,0,0.98-0.2,1.29-0.599l0.701,0.786c-0.213,0.303-0.504,0.539-0.869,0.709
		c-0.366,0.169-0.771,0.254-1.215,0.254c-0.785,0-1.422-0.24-1.916-0.721c-0.492-0.48-0.738-1.121-0.738-1.922v-0.139
		c0-0.537,0.104-1.017,0.313-1.44c0.207-0.423,0.501-0.75,0.882-0.979c0.38-0.228,0.813-0.343,1.302-0.343
		c0.73,0,1.306,0.23,1.727,0.691c0.42,0.462,0.629,1.115,0.629,1.962V66.307z M139.319,64.508c-0.194-0.025-0.364-0.039-0.514-0.039
		c-0.54,0-0.895,0.183-1.063,0.549v3.497h-1.427v-5.346h1.349l0.039,0.637c0.287-0.49,0.685-0.735,1.191-0.735
		c0.158,0,0.306,0.021,0.444,0.064L139.319,64.508z M147.67,68.515h-1.433v-3.409c0-0.303-0.059-0.525-0.178-0.664
		c-0.118-0.14-0.328-0.21-0.628-0.21c-0.428,0-0.725,0.204-0.889,0.612l0.004,3.671h-1.427V65.11c0-0.309-0.063-0.533-0.184-0.671
		c-0.122-0.139-0.329-0.208-0.623-0.208c-0.405,0-0.697,0.167-0.879,0.503v3.78h-1.428v-5.346h1.339l0.044,0.598
		c0.379-0.464,0.891-0.696,1.537-0.696c0.688,0,1.161,0.271,1.418,0.815c0.375-0.544,0.911-0.815,1.606-0.815
		c0.579,0,1.011,0.169,1.294,0.506c0.283,0.338,0.425,0.846,0.425,1.524V68.515z M152.922,67.87
		c-0.458,0.495-1.072,0.743-1.843,0.743c-0.771,0-1.386-0.246-1.845-0.741c-0.461-0.493-0.69-1.165-0.69-2.015v-0.065
		c0-0.53,0.103-1.002,0.307-1.417s0.498-0.737,0.882-0.964c0.384-0.228,0.829-0.341,1.336-0.341c0.722,0,1.312,0.221,1.767,0.662
		c0.457,0.441,0.712,1.041,0.764,1.798l0.01,0.366C153.608,66.717,153.38,67.374,152.922,67.87z"/>
	<path fill="#FFFFFF" d="M133.145,64.221c-0.284,0-0.514,0.096-0.69,0.288c-0.175,0.192-0.289,0.467-0.338,0.823h1.986v-0.113
		c-0.007-0.317-0.093-0.563-0.257-0.736C133.681,64.309,133.447,64.221,133.145,64.221z"/>
	<path fill="#FFFFFF" d="M151.068,64.221c-0.348,0-0.618,0.137-0.81,0.409c-0.19,0.272-0.286,0.692-0.286,1.265
		c0,0.508,0.096,0.896,0.286,1.164c0.191,0.27,0.464,0.404,0.82,0.404c0.346,0,0.615-0.133,0.81-0.399
		c0.194-0.265,0.292-0.69,0.292-1.272c0-0.499-0.098-0.885-0.292-1.158C151.694,64.358,151.422,64.221,151.068,64.221z"/>
</g>
</svg>
