<?xml version="1.0" encoding="utf-8"?>
<!-- Generator: Adobe Illustrator 16.0.0, SVG Export Plug-In . SVG Version: 6.00 Build 0)  -->
<!DOCTYPE svg PUBLIC "-//W3C//DTD SVG 1.1//EN" "http://www.w3.org/Graphics/SVG/1.1/DTD/svg11.dtd">
<svg version="1.1" id="Слой_1" xmlns="http://www.w3.org/2000/svg" xmlns:xlink="http://www.w3.org/1999/xlink" x="0px" y="0px"
	 width="150px" height="150px" viewBox="0 0 150 150" enable-background="new 0 0 150 150" xml:space="preserve">
<path fill="#FFFFFF" d="M34.845,93.959v9.102c-0.02,2.651-0.561,4.647-1.627,6.003c-1.066,1.337-2.559,2.022-4.482,2.022
	c-1.971-0.026-3.49-0.73-4.531-2.132c-1.046-1.384-1.587-3.355-1.587-5.894V72.214c0.026-1.997,0.586-3.561,1.697-4.668
	c1.111-1.133,2.63-1.695,4.554-1.722c1.971-0.022,3.471,0.568,4.466,1.745c1.021,1.179,1.511,3.103,1.511,5.73v6.389h20.66v-2.041
	c-0.019-5.252-0.679-9.671-1.99-13.273c-1.291-3.578-3.126-6.458-5.504-8.628c-2.376-2.151-5.213-3.713-8.45-4.69
	c-3.236-0.949-6.797-1.428-10.694-1.404c-3.894-0.024-7.474,0.456-10.736,1.404c-3.262,0.977-6.116,2.514-8.514,4.665
	c-2.429,2.177-4.309,5.029-5.64,8.609c-1.319,3.578-1.996,7.975-2.022,13.183v22.974c0.026,5.884,1.092,10.78,3.243,14.678
	c2.125,3.916,5.188,6.841,9.174,8.784c3.984,1.926,8.766,2.902,14.362,2.902c5.594,0.019,10.375-0.931,14.36-2.876
	c4.012-1.952,7.068-5.053,9.2-9.287c2.125-4.242,3.191-9.79,3.21-16.65v-4.077H34.845L34.845,93.959z"/>
<path fill="#FFFFFF" d="M144.509,68.844c-0.951-2.055-2.262-3.792-3.884-5.171c-1.627-1.399-3.455-2.439-5.51-3.138
	c-2.035-0.701-4.161-1.063-6.352-1.063c-2.279,0-4.491,0.34-6.661,1.063c-2.164,0.699-4.108,1.761-5.865,3.208
	c-0.691,0.568-1.278,1.25-1.854,1.942c-0.077-2.497-0.533-4.739-1.414-6.665c-0.949-2.055-2.261-3.792-3.884-5.168
	c-0.45-0.392-0.955-0.685-1.441-1.021c-1.092-0.845-2.214-1.621-3.498-2.126c-1.872-0.722-3.816-1.085-5.826-1.085
	c-0.229,0-0.46,0.052-0.686,0.065c-0.136-0.007-0.271-0.035-0.406-0.035c-0.177,0-0.343,0.068-0.512,0.116
	c-1.491,0.139-2.984,0.411-4.496,0.939c-2.055,0.725-3.993,1.81-5.827,3.254c-1.83,1.444-3.405,3.253-4.741,5.418V43.769
	L62.14,37.534l0.006,87.016h20.59V73.198c0-1.056,0.116-1.986,0.34-2.81c0.228-0.824,0.571-1.533,1.035-2.128
	c0.925-1.198,2.347-1.786,4.312-1.81c1.762,0,3.118,0.544,4.042,1.648c0.905,1.13,1.373,2.824,1.373,5.13v51.322h20.596l0,0V81.659
	c0.168-1.43,0.512-2.676,1.215-3.577c0.925-1.198,2.346-1.784,4.31-1.809c1.765,0,3.122,0.544,4.044,1.65
	c0.905,1.129,1.377,2.819,1.377,5.123v41.503h20.595V76.002C145.947,73.292,145.451,70.9,144.509,68.844z"/>
<polygon fill-rule="evenodd" clip-rule="evenodd" fill="#FFFFFF" points="145.974,28.011 62.269,1.275 62.269,1.168 62.101,1.222 
	61.934,1.168 61.934,1.275 1.956,20.039 1.956,40.634 62.101,21.815 145.974,48.6 "/>
<g>
	<path fill="#FFFFFF" d="M5.609,145.524c-0.009,0.402,0.058,0.736,0.202,1.009c0.14,0.273,0.281,0.487,0.427,0.636
		c0.276,0.276,0.62,0.479,1.034,0.599c0.415,0.119,0.816,0.176,1.197,0.176c0.394,0,0.771-0.053,1.139-0.158
		c0.365-0.099,0.662-0.263,0.888-0.483c0.157-0.157,0.286-0.34,0.387-0.563c0.101-0.214,0.15-0.459,0.15-0.724
		c0-0.229-0.043-0.445-0.125-0.642c-0.084-0.202-0.183-0.37-0.303-0.493c-0.109-0.119-0.249-0.225-0.417-0.308
		c-0.167-0.091-0.342-0.161-0.52-0.23c-0.174-0.063-0.348-0.115-0.503-0.149c-0.164-0.036-0.29-0.063-0.394-0.079l-0.958-0.178
		c-0.2-0.038-0.409-0.083-0.632-0.13c-0.217-0.055-0.432-0.115-0.648-0.193c-0.211-0.075-0.421-0.177-0.615-0.288
		c-0.196-0.113-0.37-0.252-0.514-0.414c-0.135-0.16-0.262-0.356-0.382-0.603c-0.121-0.237-0.179-0.544-0.179-0.919
		c0-0.503,0.112-0.934,0.329-1.294c0.22-0.36,0.493-0.647,0.823-0.859c0.207-0.134,0.435-0.245,0.675-0.32
		c0.243-0.078,0.475-0.135,0.698-0.167c0.226-0.039,0.423-0.065,0.602-0.073c0.179-0.004,0.318-0.01,0.419-0.01
		c0.346,0,0.66,0.023,0.937,0.083c0.282,0.05,0.524,0.119,0.733,0.206c0.211,0.079,0.393,0.172,0.546,0.276
		c0.157,0.105,0.288,0.207,0.396,0.308c0.032,0.028,0.084,0.089,0.167,0.187c0.086,0.095,0.168,0.221,0.262,0.374
		c0.09,0.16,0.174,0.34,0.251,0.566c0.075,0.217,0.129,0.465,0.159,0.752h-1.017c-0.024-0.287-0.099-0.542-0.219-0.772
		c-0.116-0.225-0.254-0.412-0.411-0.554c-0.228-0.213-0.514-0.362-0.853-0.443c-0.344-0.081-0.688-0.125-1.034-0.125
		c-0.054,0-0.142,0.008-0.262,0.012c-0.118,0.004-0.254,0.017-0.4,0.047c-0.152,0.028-0.313,0.063-0.481,0.113
		c-0.167,0.055-0.322,0.117-0.459,0.202c-0.254,0.153-0.452,0.355-0.587,0.608c-0.138,0.251-0.204,0.524-0.204,0.812
		c0,0.24,0.041,0.435,0.121,0.591c0.083,0.153,0.163,0.276,0.247,0.37c0.194,0.2,0.441,0.354,0.749,0.45
		c0.303,0.105,0.619,0.183,0.95,0.249l0.904,0.176c0.516,0.102,0.995,0.221,1.43,0.375c0.432,0.139,0.795,0.35,1.089,0.622
		c0.181,0.175,0.341,0.405,0.485,0.688c0.142,0.281,0.208,0.641,0.208,1.084c0,0.435-0.073,0.827-0.215,1.183
		c-0.146,0.351-0.348,0.642-0.602,0.882c-0.202,0.183-0.421,0.326-0.658,0.436c-0.243,0.113-0.479,0.193-0.729,0.244
		c-0.245,0.059-0.481,0.091-0.713,0.113c-0.228,0.017-0.432,0.028-0.612,0.028c-0.247,0-0.503-0.012-0.776-0.034
		c-0.266-0.024-0.537-0.066-0.812-0.134c-0.275-0.072-0.542-0.174-0.795-0.308c-0.253-0.131-0.49-0.307-0.713-0.521
		c-0.206-0.212-0.408-0.51-0.597-0.892c-0.193-0.387-0.29-0.852-0.29-1.396H5.609z"/>
	<path fill="#FFFFFF" d="M27.36,145.427c-0.049,0.466-0.172,0.908-0.363,1.319c-0.195,0.416-0.44,0.776-0.741,1.073
		c-0.219,0.225-0.449,0.396-0.69,0.536c-0.241,0.136-0.488,0.241-0.737,0.308c-0.245,0.066-0.49,0.117-0.737,0.134
		c-0.247,0.026-0.488,0.034-0.726,0.034c-0.243,0-0.501-0.008-0.765-0.038c-0.263-0.028-0.529-0.081-0.795-0.172
		c-0.262-0.085-0.528-0.207-0.791-0.36c-0.267-0.158-0.522-0.36-0.769-0.617c-0.247-0.257-0.454-0.538-0.624-0.85
		c-0.168-0.307-0.305-0.629-0.413-0.969c-0.103-0.342-0.176-0.686-0.224-1.035c-0.045-0.352-0.068-0.702-0.068-1.046
		c0-0.329,0.021-0.667,0.064-1.023c0.039-0.354,0.11-0.693,0.215-1.039c0.106-0.34,0.243-0.67,0.413-0.981
		c0.168-0.319,0.387-0.601,0.649-0.859c0.32-0.306,0.729-0.585,1.221-0.815c0.492-0.23,1.109-0.35,1.846-0.35
		c0.256,0,0.52,0.019,0.793,0.053c0.275,0.038,0.544,0.095,0.811,0.182c0.267,0.081,0.516,0.188,0.752,0.317
		c0.237,0.124,0.452,0.281,0.645,0.464c0.232,0.236,0.443,0.538,0.621,0.908c0.179,0.368,0.282,0.786,0.308,1.241h-1.023
		c-0.03-0.323-0.107-0.61-0.234-0.873c-0.129-0.26-0.279-0.478-0.451-0.658c-0.193-0.206-0.462-0.382-0.802-0.535
		c-0.346-0.16-0.787-0.235-1.332-0.235c-0.389,0-0.776,0.051-1.169,0.156c-0.391,0.104-0.763,0.334-1.122,0.682
		c-0.382,0.374-0.664,0.829-0.846,1.381c-0.183,0.547-0.275,1.161-0.275,1.833c0,0.321,0.023,0.641,0.062,0.965
		c0.043,0.325,0.114,0.643,0.206,0.954c0.095,0.312,0.217,0.599,0.359,0.876c0.152,0.273,0.331,0.518,0.55,0.724
		c0.21,0.211,0.501,0.409,0.871,0.589c0.372,0.185,0.833,0.273,1.39,0.273c0.52,0,0.946-0.085,1.286-0.247
		c0.337-0.16,0.597-0.334,0.782-0.506c0.062-0.061,0.14-0.147,0.232-0.253c0.09-0.104,0.176-0.23,0.26-0.384
		c0.082-0.149,0.157-0.321,0.219-0.514c0.064-0.19,0.105-0.406,0.123-0.642H27.36z"/>
	<path fill="#FFFFFF" d="M34.374,148.544h-1.098l3.643-9.581h1.137l3.638,9.581h-1.107l-1.014-2.747h-4.173L34.374,148.544z
		 M39.274,144.934l-1.794-4.998l-1.796,4.998H39.274z"/>
	<path fill="#FFFFFF" d="M49.198,148.544h-1.017v-9.581h1.165l5.381,8.066v-8.066h1.012v9.581h-1.15l-5.392-8.054V148.544z"/>
	<path fill="#FFFFFF" d="M66.801,138.963c0.247,0,0.503,0.01,0.775,0.028c0.265,0.019,0.538,0.064,0.813,0.14
		c0.273,0.073,0.546,0.176,0.815,0.319c0.268,0.14,0.533,0.334,0.789,0.568c0.166,0.164,0.322,0.358,0.483,0.581
		c0.159,0.224,0.299,0.493,0.425,0.795c0.125,0.303,0.224,0.652,0.303,1.039c0.075,0.389,0.116,0.821,0.116,1.297
		c0,0.888-0.124,1.644-0.372,2.285c-0.245,0.639-0.576,1.143-0.984,1.523c-0.238,0.214-0.492,0.39-0.76,0.525
		c-0.269,0.13-0.546,0.23-0.828,0.304c-0.284,0.074-0.569,0.123-0.863,0.147c-0.292,0.021-0.576,0.028-0.849,0.028h-3.215v-9.581
		H66.801z M64.461,147.687h1.904c0.2,0,0.421-0.004,0.665-0.017c0.238-0.01,0.487-0.042,0.745-0.099
		c0.254-0.063,0.51-0.15,0.768-0.27c0.255-0.121,0.492-0.289,0.711-0.508c0.331-0.327,0.577-0.758,0.744-1.29
		c0.172-0.536,0.254-1.116,0.254-1.745c0-0.655-0.09-1.252-0.267-1.784c-0.178-0.528-0.443-0.959-0.787-1.299
		c-0.194-0.186-0.389-0.342-0.595-0.451c-0.206-0.104-0.413-0.193-0.621-0.255c-0.215-0.057-0.415-0.095-0.617-0.115
		c-0.202-0.02-0.396-0.028-0.578-0.028h-2.325V147.687z"/>
	<path fill="#FFFFFF" d="M79.506,138.963v9.581H78.49v-9.581H79.506z"/>
	<path fill="#FFFFFF" d="M88.225,148.544h-1.013v-9.581h1.163l5.381,8.066v-8.066h1.011v9.581h-1.147l-5.395-8.054V148.544z"/>
	<path fill="#FFFFFF" d="M102.353,148.544h-1.096l3.645-9.581h1.131l3.642,9.581h-1.108l-1.012-2.747h-4.176L102.353,148.544z
		 M107.253,144.934l-1.797-4.998l-1.788,4.998H107.253z"/>
	<path fill="#FFFFFF" d="M121.854,138.963h1.109l-3.376,9.581h-1.248l-3.381-9.581h1.106l2.905,8.545L121.854,138.963z"/>
	<path fill="#FFFFFF" d="M130.479,138.963v9.581h-1.011v-9.581H130.479z"/>
	<path fill="#FFFFFF" d="M138.065,148.544h-1.096l3.643-9.581h1.133l3.645,9.581h-1.109l-1.013-2.747h-4.172L138.065,148.544z
		 M142.966,144.934l-1.793-4.998l-1.79,4.998H142.966z"/>
</g>
</svg>
