<?xml version="1.0" encoding="utf-8"?>
<!-- Generator: Adobe Illustrator 16.0.0, SVG Export Plug-In . SVG Version: 6.00 Build 0)  -->
<!DOCTYPE svg PUBLIC "-//W3C//DTD SVG 1.1//EN" "http://www.w3.org/Graphics/SVG/1.1/DTD/svg11.dtd">
<svg version="1.1" id="Layer_1" xmlns="http://www.w3.org/2000/svg" xmlns:xlink="http://www.w3.org/1999/xlink" x="0px" y="0px"
	 width="200px" height="82.389px" viewBox="0 0 200 82.389" enable-background="new 0 0 200 82.389" xml:space="preserve">
<path fill="#FFFFFF" d="M41.063,50.005v2.678c-0.007,0.778-0.166,1.366-0.479,1.765c-0.313,0.395-0.754,0.597-1.319,0.597
	c-0.579-0.009-1.025-0.217-1.332-0.628c-0.308-0.406-0.467-0.986-0.467-1.733v-9.075c0.006-0.587,0.173-1.047,0.498-1.373
	c0.328-0.333,0.773-0.499,1.341-0.506c0.579-0.007,1.021,0.168,1.313,0.514c0.302,0.346,0.446,0.912,0.446,1.686v1.879h6.076v-0.6
	c-0.005-1.546-0.199-2.846-0.585-3.905c-0.38-1.053-0.921-1.898-1.619-2.538c-0.699-0.632-1.534-1.092-2.485-1.381
	c-0.953-0.278-2-0.419-3.146-0.412c-1.146-0.007-2.198,0.134-3.158,0.412c-0.96,0.289-1.8,0.741-2.506,1.373
	c-0.714,0.641-1.268,1.479-1.658,2.533c-0.388,1.052-0.588,2.345-0.595,3.876v6.758c0.007,1.733,0.321,3.173,0.954,4.32
	c0.625,1.15,1.526,2.011,2.698,2.583c1.172,0.567,2.578,0.854,4.225,0.854c1.646,0.006,3.053-0.272,4.225-0.845
	c1.179-0.575,2.078-1.486,2.706-2.733c0.625-1.246,0.939-2.879,0.944-4.899v-1.197H41.063L41.063,50.005z"/>
<path fill="#FFFFFF" d="M73.32,42.617c-0.278-0.604-0.664-1.115-1.142-1.521c-0.479-0.411-1.017-0.717-1.621-0.923
	c-0.599-0.205-1.225-0.313-1.868-0.313c-0.671,0-1.321,0.1-1.96,0.313c-0.637,0.206-1.209,0.519-1.725,0.944
	c-0.204,0.166-0.377,0.367-0.546,0.569c-0.022-0.733-0.156-1.393-0.416-1.959c-0.278-0.604-0.665-1.116-1.142-1.521
	c-0.133-0.113-0.281-0.201-0.425-0.3c-0.321-0.248-0.65-0.477-1.029-0.624c-0.551-0.214-1.123-0.321-1.715-0.321
	c-0.066,0-0.134,0.017-0.201,0.02c-0.039-0.002-0.079-0.01-0.119-0.01c-0.051,0-0.101,0.021-0.149,0.035
	c-0.438,0.039-0.878,0.119-1.324,0.276c-0.604,0.212-1.174,0.532-1.714,0.957c-0.537,0.423-1.002,0.956-1.395,1.593v-4.591
	l-5.739-1.835l0.001,25.598h6.058V43.897c0-0.31,0.033-0.583,0.1-0.827c0.067-0.242,0.169-0.451,0.305-0.626
	c0.272-0.352,0.689-0.525,1.268-0.532c0.52,0,0.918,0.16,1.189,0.485c0.267,0.332,0.405,0.83,0.405,1.508v15.099h6.058l0,0V46.386
	c0.05-0.42,0.151-0.787,0.357-1.052c0.272-0.353,0.689-0.524,1.268-0.532c0.521,0,0.919,0.16,1.189,0.486
	c0.267,0.331,0.406,0.829,0.406,1.508v12.208h6.059V44.722C73.745,43.925,73.598,43.222,73.32,42.617z"/>
<polygon fill-rule="evenodd" clip-rule="evenodd" fill="#FFFFFF" points="73.753,30.605 49.128,22.74 49.128,22.709 49.079,22.725 
	49.029,22.709 49.029,22.74 31.747,28.261 31.747,34.319 49.079,28.781 73.753,36.662 "/>
<g>
	<path fill="#FFFFFF" d="M82.182,33.357l2.25,13.538c0.048,0.263,0.1,0.659,0.16,1.195c0.059,0.537,0.118,1.144,0.179,1.822
		c0.06,0.679,0.125,1.374,0.197,2.089c0.07,0.716,0.13,1.371,0.178,1.966h0.072c0.046-0.595,0.1-1.25,0.159-1.966
		c0.061-0.715,0.114-1.41,0.161-2.089c0.048-0.679,0.102-1.299,0.161-1.857c0.059-0.56,0.112-0.971,0.16-1.232l2.466-13.466h6.249
		l-5.679,25.646h-7.286l-5.68-25.646H82.182z"/>
	<path fill="#FFFFFF" d="M94.824,46.037c0-1,0.132-1.916,0.393-2.749c0.263-0.835,0.673-1.548,1.232-2.144
		c0.56-0.595,1.274-1.06,2.143-1.393c0.869-0.334,1.924-0.5,3.161-0.5c2.477,0,4.273,0.478,5.393,1.428
		c1.121,0.953,1.681,2.322,1.681,4.107v10.966c0,0.882,0.022,1.542,0.069,1.982c0.049,0.439,0.168,0.863,0.359,1.269h-5.216
		l-0.32-2.429c-0.191,0.404-0.406,0.785-0.644,1.143c-0.238,0.357-0.531,0.666-0.876,0.929c-0.345,0.262-0.756,0.476-1.231,0.643
		c-0.478,0.166-1.048,0.25-1.715,0.25c-1.477,0-2.631-0.392-3.464-1.179c-0.833-0.786-1.251-2.132-1.251-4.035
		c0-1.452,0.293-2.614,0.876-3.482c0.582-0.869,1.458-1.603,2.624-2.198l3.715-1.893c0.62-0.309,1.047-0.601,1.286-0.875
		c0.237-0.273,0.357-0.708,0.357-1.304c0-0.404-0.125-0.762-0.375-1.071c-0.25-0.309-0.685-0.464-1.303-0.464
		c-0.621,0-1.067,0.201-1.341,0.607c-0.273,0.404-0.411,0.977-0.411,1.714v0.678H94.824z M103.396,49.466
		c-0.048,0.048-0.155,0.139-0.321,0.269c-0.168,0.132-0.37,0.273-0.607,0.429c-0.238,0.155-0.488,0.316-0.749,0.482
		c-0.264,0.167-0.501,0.31-0.715,0.43c-0.406,0.261-0.68,0.595-0.822,0.999c-0.142,0.405-0.215,0.882-0.215,1.43
		c0,0.666,0.112,1.143,0.34,1.428c0.227,0.285,0.612,0.43,1.161,0.43c0.643,0,1.125-0.232,1.447-0.697
		c0.321-0.465,0.481-1.197,0.481-2.197V49.466z"/>
	<path fill="#FFFFFF" d="M116.718,34.429v5.357h2.93v3.786h-2.93V53.86c0,0.548,0.28,0.888,0.84,1.019s1.257,0.196,2.09,0.196v3.929
		c-0.478,0.047-1.113,0.095-1.91,0.144c-0.798,0.047-1.626,0.069-2.483,0.069c-0.547,0-1.061-0.084-1.535-0.25
		c-0.477-0.166-0.893-0.427-1.25-0.784c-0.357-0.358-0.644-0.822-0.857-1.394c-0.215-0.571-0.322-1.274-0.322-2.107V43.572h-2.178
		v-3.786h2.178v-5.357H116.718z"/>
	<path fill="#FFFFFF" d="M126.29,34.429v5.357h2.93v3.786h-2.93V53.86c0,0.548,0.28,0.888,0.841,1.019
		c0.559,0.131,1.255,0.196,2.089,0.196v3.929c-0.478,0.047-1.113,0.095-1.911,0.144c-0.798,0.047-1.625,0.069-2.482,0.069
		c-0.548,0-1.061-0.084-1.536-0.25s-0.892-0.427-1.249-0.784c-0.357-0.358-0.644-0.822-0.857-1.394
		c-0.215-0.571-0.322-1.274-0.322-2.107V43.572h-2.179v-3.786h2.179v-5.357H126.29z"/>
	<path fill="#FFFFFF" d="M134.612,50.073v2.966c0,0.784,0.125,1.398,0.376,1.84c0.25,0.44,0.707,0.659,1.374,0.659
		s1.125-0.225,1.377-0.678c0.249-0.452,0.374-1.06,0.374-1.821v-1.145h5.144v1.395c0,1.143-0.203,2.113-0.607,2.911
		c-0.405,0.798-0.942,1.446-1.607,1.946c-0.668,0.5-1.411,0.857-2.232,1.07c-0.821,0.215-1.637,0.322-2.447,0.322
		c-0.833,0-1.654-0.112-2.465-0.34c-0.81-0.226-1.546-0.588-2.213-1.089c-0.667-0.5-1.203-1.148-1.608-1.946
		c-0.404-0.797-0.606-1.769-0.606-2.912v-7.82c0-1.144,0.202-2.108,0.606-2.895c0.405-0.785,0.941-1.423,1.608-1.91
		c0.667-0.489,1.403-0.841,2.213-1.054c0.811-0.215,1.632-0.321,2.465-0.321c0.811,0,1.626,0.106,2.447,0.321
		c0.821,0.213,1.564,0.57,2.232,1.071c0.665,0.5,1.202,1.149,1.607,1.946c0.404,0.798,0.607,1.768,0.607,2.91v4.572H134.612z
		 M138.113,46.574v-0.681c0-0.998-0.12-1.714-0.356-2.141c-0.239-0.43-0.704-0.645-1.395-0.645c-0.618,0-1.065,0.222-1.339,0.661
		c-0.273,0.441-0.411,1.149-0.411,2.124v0.681H138.113z"/>
	<path fill="#FFFFFF" d="M149.828,42.573c0.333-0.69,0.666-1.249,1.001-1.679c0.332-0.429,0.678-0.769,1.035-1.018
		c0.357-0.25,0.72-0.418,1.089-0.5c0.369-0.084,0.755-0.125,1.161-0.125v5.965c-1.501,0-2.531,0.297-3.09,0.893
		c-0.56,0.596-0.839,1.572-0.839,2.929v9.966h-5.431V39.786h5.073V42.573z"/>
	<path fill="#FFFFFF" d="M159.648,42.323h0.036c0.405-0.905,1.049-1.644,1.93-2.215c0.88-0.571,1.773-0.856,2.679-0.856
		c0.548,0,1.083,0.084,1.606,0.25c0.524,0.166,0.988,0.417,1.393,0.749c0.406,0.335,0.727,0.757,0.966,1.269
		c0.237,0.512,0.357,1.125,0.357,1.84v15.645h-5.43V45.467c0-1.19-0.477-1.787-1.428-1.787c-0.525,0-0.906,0.16-1.144,0.482
		c-0.238,0.322-0.358,0.757-0.358,1.305v13.537h-5.429V39.786h4.821V42.323z"/>
</g>
<g>
	<path fill="#FFFFFF" d="M97.351,33.247h3.971v4.225h-3.971V33.247z"/>
	<path fill="#FFFFFF" d="M103.066,33.247h3.972v4.225h-3.972V33.247z"/>
</g>
</svg>
