<svg version="1.1" id="Слой_1" xmlns="http://www.w3.org/2000/svg" x="0" y="0" width="150" height="150" xml:space="preserve"><path fill="#FFF" d="M34.845 93.959v9.102c-.02 2.651-.561 4.647-1.627 6.003-1.066 1.337-2.559 2.022-4.482 2.022-1.971-.026-3.49-.73-4.531-2.132-1.046-1.384-1.587-3.355-1.587-5.894V72.214c.026-1.997.586-3.561 1.697-4.668 1.111-1.133 2.63-1.695 4.554-1.722 1.971-.022 3.471.568 4.466 1.745 1.021 1.179 1.511 3.103 1.511 5.73v6.389h20.66v-2.041c-.019-5.252-.679-9.671-1.99-13.273-1.291-3.578-3.126-6.458-5.504-8.628-2.376-2.151-5.213-3.713-8.45-4.69-3.236-.949-6.797-1.428-10.694-1.404-3.894-.024-7.474.456-10.736 1.404-3.262.977-6.116 2.514-8.514 4.665-2.429 2.177-4.309 5.029-5.64 8.609-1.319 3.578-1.996 7.975-2.022 13.183v22.974c.026 5.884 1.092 10.78 3.243 14.678 2.125 3.916 5.188 6.841 9.174 8.784 3.984 1.926 8.766 2.902 14.362 2.902 5.594.019 10.375-.931 14.36-2.876 4.012-1.952 7.068-5.053 9.2-9.287 2.125-4.242 3.191-9.79 3.21-16.65v-4.077h-20.66v-.002zm109.664-25.115c-.951-2.055-2.262-3.792-3.884-5.171a16.496 16.496 0 0 0-5.51-3.138 19.414 19.414 0 0 0-6.352-1.063c-2.279 0-4.491.34-6.661 1.063a17.653 17.653 0 0 0-5.865 3.208c-.691.568-1.278 1.25-1.854 1.942-.077-2.497-.533-4.739-1.414-6.665-.949-2.055-2.261-3.792-3.884-5.168-.45-.392-.955-.685-1.441-1.021-1.092-.845-2.214-1.621-3.498-2.126a16.064 16.064 0 0 0-5.826-1.085c-.229 0-.46.052-.686.065-.136-.007-.271-.035-.406-.035-.177 0-.343.068-.512.116-1.491.139-2.984.411-4.496.939-2.055.725-3.993 1.81-5.827 3.254-1.83 1.444-3.405 3.253-4.741 5.418V43.769L62.14 37.534l.006 87.016h20.59V73.198c0-1.056.116-1.986.34-2.81.228-.824.571-1.533 1.035-2.128.925-1.198 2.347-1.786 4.312-1.81 1.762 0 3.118.544 4.042 1.648.905 1.13 1.373 2.824 1.373 5.13v51.322h20.596V81.659c.168-1.43.512-2.676 1.215-3.577.925-1.198 2.346-1.784 4.31-1.809 1.765 0 3.122.544 4.044 1.65.905 1.129 1.377 2.819 1.377 5.123v41.503h20.595V76.002c-.028-2.71-.524-5.102-1.466-7.158z"/><path fill-rule="evenodd" clip-rule="evenodd" fill="#FFF" d="M145.974 28.011L62.269 1.275v-.107l-.168.054-.167-.054v.107L1.956 20.039v20.595l60.145-18.819L145.974 48.6z"/><path d="M5.609 145.524c-.009.402.058.736.202 1.009.14.273.281.487.427.636.276.276.62.479 1.034.599.415.119.816.176 1.197.176.394 0 .771-.053 1.139-.158a2 2 0 0 0 .888-.483c.157-.157.286-.34.387-.563.101-.214.15-.459.15-.724 0-.229-.043-.445-.125-.642a1.557 1.557 0 0 0-.303-.493 1.41 1.41 0 0 0-.417-.308 4.39 4.39 0 0 0-1.023-.379 6.795 6.795 0 0 0-.394-.079l-.958-.178c-.2-.038-.409-.083-.632-.13a6.829 6.829 0 0 1-.648-.193 3.869 3.869 0 0 1-.615-.288 2.064 2.064 0 0 1-.514-.414 2.865 2.865 0 0 1-.382-.603c-.121-.237-.179-.544-.179-.919 0-.503.112-.934.329-1.294.22-.36.493-.647.823-.859a2.77 2.77 0 0 1 .675-.32c.243-.078.475-.135.698-.167.226-.039.423-.065.602-.073.179-.004.318-.01.419-.01.346 0 .66.023.937.083.282.05.524.119.733.206.211.079.393.172.546.276.157.105.288.207.396.308.032.028.084.089.167.187.086.095.168.221.262.374a3.3 3.3 0 0 1 .41 1.318h-1.017a2.008 2.008 0 0 0-.219-.772 1.937 1.937 0 0 0-.411-.554 1.86 1.86 0 0 0-.853-.443 4.498 4.498 0 0 0-1.034-.125c-.054 0-.142.008-.262.012a2.394 2.394 0 0 0-.4.047 4.581 4.581 0 0 0-.481.113 2.126 2.126 0 0 0-.459.202 1.564 1.564 0 0 0-.587.608 1.662 1.662 0 0 0-.204.812c0 .24.041.435.121.591.083.153.163.276.247.37.194.2.441.354.749.45.303.105.619.183.95.249l.904.176c.516.102.995.221 1.43.375.432.139.795.35 1.089.622.181.175.341.405.485.688.142.281.208.641.208 1.084 0 .435-.073.827-.215 1.183a2.532 2.532 0 0 1-.602.882 2.605 2.605 0 0 1-.658.436 3.24 3.24 0 0 1-.729.244 5.038 5.038 0 0 1-.713.113 8.433 8.433 0 0 1-.612.028c-.247 0-.503-.012-.776-.034a5.389 5.389 0 0 1-.812-.134 3.697 3.697 0 0 1-.795-.308 3.083 3.083 0 0 1-.713-.521c-.206-.212-.408-.51-.597-.892-.193-.387-.29-.852-.29-1.396h1.025zm21.751-.097a4.146 4.146 0 0 1-.363 1.319c-.195.416-.44.776-.741 1.073a3.169 3.169 0 0 1-1.427.844 3.86 3.86 0 0 1-.737.134 6.895 6.895 0 0 1-.726.034c-.243 0-.501-.008-.765-.038a3.63 3.63 0 0 1-.795-.172 4.104 4.104 0 0 1-.791-.36 3.935 3.935 0 0 1-1.393-1.467 5.44 5.44 0 0 1-.413-.969 6.778 6.778 0 0 1-.224-1.035 8.26 8.26 0 0 1-.004-2.069c.039-.354.11-.693.215-1.039.106-.34.243-.67.413-.981.168-.319.387-.601.649-.859.32-.306.729-.585 1.221-.815.492-.23 1.109-.35 1.846-.35.256 0 .52.019.793.053.275.038.544.095.811.182.267.081.516.188.752.317.237.124.452.281.645.464.232.236.443.538.621.908.179.368.282.786.308 1.241h-1.023a2.512 2.512 0 0 0-.685-1.531c-.193-.206-.462-.382-.802-.535-.346-.16-.787-.235-1.332-.235-.389 0-.776.051-1.169.156-.391.104-.763.334-1.122.682a3.366 3.366 0 0 0-.846 1.381 5.768 5.768 0 0 0-.275 1.833c0 .321.023.641.062.965.043.325.114.643.206.954.095.312.217.599.359.876.152.273.331.518.55.724.21.211.501.409.871.589.372.185.833.273 1.39.273.52 0 .946-.085 1.286-.247a3.11 3.11 0 0 0 .782-.506c.062-.061.14-.147.232-.253.09-.104.176-.23.26-.384a2.92 2.92 0 0 0 .219-.514c.064-.19.105-.406.123-.642h1.019zm7.014 3.117h-1.098l3.643-9.581h1.137l3.638 9.581h-1.107l-1.014-2.747H35.4l-1.026 2.747zm4.9-3.61l-1.794-4.998-1.796 4.998h3.59zm9.924 3.61h-1.017v-9.581h1.165l5.381 8.066v-8.066h1.012v9.581h-1.15l-5.392-8.054v8.054zm17.603-9.581c.247 0 .503.01.775.028.265.019.538.064.813.14.273.073.546.176.815.319.268.14.533.334.789.568.166.164.322.358.483.581.159.224.299.493.425.795.125.303.224.652.303 1.039.075.389.116.821.116 1.297 0 .888-.124 1.644-.372 2.285-.245.639-.576 1.143-.984 1.523a3.48 3.48 0 0 1-.76.525c-.269.13-.546.23-.828.304a5.022 5.022 0 0 1-.863.147c-.292.021-.576.028-.849.028h-3.215v-9.581h3.352zm-2.34 8.724h1.904c.2 0 .421-.004.665-.017.238-.01.487-.042.745-.099.254-.063.51-.15.768-.27.255-.121.492-.289.711-.508.331-.327.577-.758.744-1.29a5.675 5.675 0 0 0 .254-1.745 5.64 5.64 0 0 0-.267-1.784 3.253 3.253 0 0 0-.787-1.299 2.717 2.717 0 0 0-.595-.451 3.799 3.799 0 0 0-.621-.255 3.867 3.867 0 0 0-.617-.115 5.871 5.871 0 0 0-.578-.028h-2.325v7.861zm15.045-8.724v9.581H78.49v-9.581h1.016zm8.719 9.581h-1.013v-9.581h1.163l5.381 8.066v-8.066h1.011v9.581H93.62l-5.395-8.054v8.054zm14.128 0h-1.096l3.645-9.581h1.131l3.642 9.581h-1.108l-1.012-2.747h-4.176l-1.026 2.747zm4.9-3.61l-1.797-4.998-1.788 4.998h3.585zm14.601-5.971h1.109l-3.376 9.581h-1.248l-3.381-9.581h1.106l2.905 8.545 2.885-8.545zm8.625 0v9.581h-1.011v-9.581h1.011zm7.586 9.581h-1.096l3.643-9.581h1.133l3.645 9.581h-1.109l-1.013-2.747h-4.172l-1.031 2.747zm4.901-3.61l-1.793-4.998-1.79 4.998h3.583z" fill="#FFF"/></svg>