<?xml version="1.0" encoding="utf-8"?>
<!-- Generator: Adobe Illustrator 23.0.3, SVG Export Plug-In . SVG Version: 6.00 Build 0)  -->
<svg version="1.1" id="Layer_1" xmlns="http://www.w3.org/2000/svg" xmlns:xlink="http://www.w3.org/1999/xlink" x="0px" y="0px"
	 viewBox="0 0 200 82.4" style="enable-background:new 0 0 200 82.4;" xml:space="preserve">
<style type="text/css">
	.st0{fill:#FFFFFF;}
	.st1{fill-rule:evenodd;clip-rule:evenodd;fill:#FFFFFF;}
</style>
<path class="st0" d="M159.3,66.7H89.2V55.2h70.1L159.3,66.7L159.3,66.7z M90,65.8h68.4V56H90V65.8z"/>
<path class="st0" d="M50.4,42.9v2.7c0,0.8-0.2,1.4-0.5,1.8c-0.3,0.4-0.8,0.6-1.3,0.6c-0.6,0-1-0.2-1.3-0.6c-0.3-0.4-0.5-1-0.5-1.7
	v-9.1c0-0.6,0.2-1,0.5-1.4c0.3-0.3,0.8-0.5,1.3-0.5c0.6,0,1,0.2,1.3,0.5c0.3,0.3,0.4,0.9,0.4,1.7v1.9h6.1v-0.6
	c0-1.5-0.2-2.8-0.6-3.9c-0.4-1.1-0.9-1.9-1.6-2.5c-0.7-0.6-1.5-1.1-2.5-1.4c-1-0.3-2-0.4-3.1-0.4c-1.1,0-2.2,0.1-3.2,0.4
	c-1,0.3-1.8,0.7-2.5,1.4c-0.7,0.6-1.3,1.5-1.7,2.5c-0.4,1.1-0.6,2.3-0.6,3.9v6.8c0,1.7,0.3,3.2,1,4.3c0.6,1.2,1.5,2,2.7,2.6
	c1.2,0.6,2.6,0.9,4.2,0.9c1.6,0,3.1-0.3,4.2-0.8c1.2-0.6,2.1-1.5,2.7-2.7c0.6-1.2,0.9-2.9,0.9-4.9v-1.2L50.4,42.9L50.4,42.9z"/>
<path class="st0" d="M82.7,35.5c-0.3-0.6-0.7-1.1-1.1-1.5c-0.5-0.4-1-0.7-1.6-0.9c-0.6-0.2-1.2-0.3-1.9-0.3c-0.7,0-1.3,0.1-2,0.3
	c-0.6,0.2-1.2,0.5-1.7,0.9c-0.2,0.2-0.4,0.4-0.5,0.6c0-0.7-0.2-1.4-0.4-2c-0.3-0.6-0.7-1.1-1.1-1.5c-0.1-0.1-0.3-0.2-0.4-0.3
	c-0.3-0.3-0.7-0.5-1-0.6c-0.6-0.2-1.1-0.3-1.7-0.3c-0.1,0-0.1,0-0.2,0c0,0-0.1,0-0.1,0c-0.1,0-0.1,0-0.2,0c-0.4,0-0.9,0.1-1.3,0.3
	c-0.6,0.2-1.2,0.5-1.7,1c-0.5,0.4-1,1-1.4,1.6v-4.6l-5.7-1.8l0,25.6h6.1V36.8c0-0.3,0-0.6,0.1-0.8c0.1-0.2,0.2-0.5,0.3-0.6
	c0.3-0.4,0.7-0.5,1.3-0.5c0.5,0,0.9,0.2,1.2,0.5c0.3,0.3,0.4,0.8,0.4,1.5v15.1h6.1l0,0V39.3c0.1-0.4,0.2-0.8,0.4-1.1
	c0.3-0.4,0.7-0.5,1.3-0.5c0.5,0,0.9,0.2,1.2,0.5c0.3,0.3,0.4,0.8,0.4,1.5v12.2h6.1V37.6C83.1,36.8,82.9,36.1,82.7,35.5z"/>
<polygon class="st1" points="83.1,23.5 58.5,15.6 58.5,15.6 58.4,15.6 58.4,15.6 58.4,15.6 41.1,21.1 41.1,27.2 58.4,21.7 
	83.1,29.5 "/>
<g>
	<path class="st0" d="M91.2,26.2l1.3,13.4c0,0.5,0.1,1.1,0.1,1.8c0,0.7,0,1.4,0.1,2.1c0,0.7,0,1.4,0.1,2.1c0,0.7,0,1.2,0.1,1.7h0.1
		c0.1-0.8,0.1-1.6,0.2-2.4c0-0.8,0.1-1.6,0.1-2.2c0-0.7,0.1-1.3,0.1-1.8c0-0.5,0.1-0.9,0.1-1.1l2.1-13.5h5.6l1.9,13.4
		c0.1,0.5,0.1,1,0.2,1.6c0,0.6,0.1,1.3,0.1,1.9c0,0.7,0.1,1.4,0.1,2.1c0,0.7,0.1,1.4,0.1,1.9h0.1c0-0.5,0-1.1,0.1-1.8
		c0-0.7,0.1-1.4,0.1-2.1c0-0.7,0.1-1.4,0.1-2c0-0.6,0.1-1.2,0.1-1.7l1.5-13.4h5.7l-4.3,25.6h-6.7l-1.4-12.6c0-0.3-0.1-0.8-0.1-1.5
		s-0.1-1.4-0.1-2.2s-0.1-1.6-0.1-2.5c0-0.8-0.1-1.6-0.1-2.3h-0.1c0,0.8-0.1,1.7-0.1,2.6c0,0.9-0.1,1.7-0.2,2.5
		c-0.1,0.8-0.1,1.5-0.2,2.1c0,0.6-0.1,1.1-0.1,1.4l-1.6,12.6h-6.5l-4.3-25.6L91.2,26.2L91.2,26.2z"/>
	<path class="st0" d="M119.4,32.1c1,0,1.9,0.1,2.8,0.4s1.6,0.7,2.2,1.2c0.6,0.6,1.1,1.3,1.5,2.3c0.3,0.9,0.5,2.1,0.5,3.5V45
		c0,1.4-0.2,2.5-0.5,3.5c-0.3,0.9-0.8,1.7-1.4,2.3c-0.6,0.6-1.4,1-2.2,1.3c-0.9,0.3-1.8,0.4-2.8,0.4s-2-0.1-2.8-0.4
		c-0.9-0.3-1.6-0.7-2.2-1.2s-1.1-1.3-1.5-2.3c-0.4-0.9-0.5-2.1-0.5-3.5v-5.6c0-1.4,0.2-2.5,0.5-3.5s0.8-1.7,1.5-2.3
		c0.6-0.6,1.4-1,2.2-1.2C117.5,32.2,118.4,32.1,119.4,32.1z M119.4,36.4c-0.5,0-1,0.2-1.2,0.5c-0.3,0.4-0.4,0.8-0.4,1.5v7.9
		c0,0.7,0.1,1.2,0.4,1.5c0.3,0.3,0.7,0.5,1.2,0.5c0.5,0,0.9-0.2,1.1-0.5c0.3-0.3,0.4-0.8,0.4-1.4v-8C121,37,120.5,36.4,119.4,36.4z"
		/>
	<path class="st0" d="M135.6,32.1c1,0,1.9,0.1,2.8,0.4s1.6,0.7,2.2,1.2c0.6,0.6,1.1,1.3,1.5,2.3c0.3,0.9,0.5,2.1,0.5,3.5V45
		c0,1.4-0.2,2.5-0.5,3.5c-0.3,0.9-0.8,1.7-1.4,2.3c-0.6,0.6-1.4,1-2.2,1.3c-0.9,0.3-1.8,0.4-2.8,0.4c-1,0-2-0.1-2.8-0.4
		c-0.9-0.3-1.6-0.7-2.2-1.2s-1.1-1.3-1.5-2.3c-0.4-0.9-0.5-2.1-0.5-3.5v-5.6c0-1.4,0.2-2.5,0.5-3.5c0.4-0.9,0.8-1.7,1.5-2.3
		c0.6-0.6,1.4-1,2.2-1.2C133.6,32.2,134.6,32.1,135.6,32.1z M135.6,36.4c-0.5,0-1,0.2-1.2,0.5c-0.3,0.4-0.4,0.8-0.4,1.5v7.9
		c0,0.7,0.1,1.2,0.4,1.5c0.3,0.3,0.7,0.5,1.2,0.5c0.5,0,0.9-0.2,1.1-0.5c0.3-0.3,0.4-0.8,0.4-1.4v-8C137.2,37,136.7,36.4,135.6,36.4
		z"/>
	<path class="st0" d="M153.4,26.2h5.4v25.6h-4.9v-2.2c-0.5,0.9-1.2,1.6-2,2.1c-0.8,0.4-1.8,0.7-2.8,0.7c-0.6,0-1.2-0.1-1.7-0.4
		s-1-0.7-1.4-1.2c-0.4-0.5-0.7-1.2-1-2c-0.2-0.8-0.4-1.8-0.4-2.9v-8.6c0-0.9,0.1-1.6,0.4-2.3c0.3-0.6,0.6-1.2,1-1.6
		c0.4-0.4,0.9-0.8,1.4-1c0.5-0.2,1.1-0.3,1.6-0.3c1.1,0,1.9,0.2,2.6,0.6c0.7,0.4,1.2,0.9,1.6,1.7L153.4,26.2L153.4,26.2z
		 M151.7,36.6c-1.1,0-1.6,0.8-1.6,2.4v6.9c0,1.5,0.5,2.3,1.6,2.3s1.6-0.8,1.6-2.3v-6.9C153.4,37.3,152.8,36.6,151.7,36.6z"/>
</g>
<g>
	<path class="st0" d="M135.1,64.5h-1.5l-2.9-4.7v4.7h-1.5v-7.2h1.5l2.9,4.7v-4.7h1.5L135.1,64.5L135.1,64.5z"/>
	<path class="st0" d="M139.4,64.5c-0.1-0.1-0.1-0.3-0.1-0.5c-0.3,0.4-0.8,0.6-1.3,0.6c-0.5,0-1-0.2-1.3-0.5
		c-0.3-0.3-0.5-0.7-0.5-1.1c0-0.6,0.2-1,0.6-1.3c0.4-0.3,1-0.5,1.8-0.5h0.7v-0.3c0-0.2-0.1-0.4-0.2-0.6c-0.1-0.1-0.3-0.2-0.6-0.2
		c-0.2,0-0.4,0.1-0.6,0.2s-0.2,0.3-0.2,0.5h-1.4c0-0.3,0.1-0.6,0.3-0.9s0.5-0.5,0.8-0.6c0.3-0.2,0.7-0.2,1.2-0.2
		c0.7,0,1.2,0.2,1.6,0.5s0.6,0.8,0.6,1.4v2.3c0,0.5,0.1,0.9,0.2,1.2v0.1L139.4,64.5L139.4,64.5z M138.2,63.5c0.2,0,0.4,0,0.6-0.1
		c0.2-0.1,0.3-0.2,0.4-0.4V62h-0.5c-0.7,0-1.1,0.2-1.1,0.7l0,0.1c0,0.2,0.1,0.3,0.2,0.4C137.8,63.4,138,63.5,138.2,63.5z"/>
	<path class="st0" d="M143.4,57.8v1.3h0.9v1h-0.9v2.7c0,0.2,0,0.3,0.1,0.4c0.1,0.1,0.2,0.1,0.4,0.1c0.2,0,0.3,0,0.4,0v1.1
		c-0.3,0.1-0.6,0.1-0.9,0.1c-1,0-1.5-0.5-1.5-1.5v-2.9h-0.8v-1h0.8v-1.3C142,57.8,143.4,57.8,143.4,57.8z"/>
	<path class="st0" d="M148.3,63.9c-0.4,0.4-0.8,0.6-1.5,0.6c-0.6,0-1-0.2-1.3-0.5c-0.3-0.3-0.5-0.8-0.5-1.4v-3.5h1.4v3.5
		c0,0.6,0.3,0.8,0.8,0.8c0.5,0,0.8-0.2,1-0.5v-3.8h1.4v5.3h-1.3L148.3,63.9z"/>
	<path class="st0" d="M153.8,60.4c-0.2,0-0.4,0-0.5,0c-0.5,0-0.9,0.2-1.1,0.5v3.5h-1.4v-5.3h1.3l0,0.6c0.3-0.5,0.7-0.7,1.2-0.7
		c0.2,0,0.3,0,0.4,0.1L153.8,60.4z"/>
</g>
</svg>
