<?xml version="1.0" encoding="utf-8"?>
<!-- Generator: Adobe Illustrator 16.0.0, SVG Export Plug-In . SVG Version: 6.00 Build 0)  -->
<!DOCTYPE svg PUBLIC "-//W3C//DTD SVG 1.1//EN" "http://www.w3.org/Graphics/SVG/1.1/DTD/svg11.dtd">
<svg version="1.1" id="Layer_1" xmlns="http://www.w3.org/2000/svg" xmlns:xlink="http://www.w3.org/1999/xlink" x="0px" y="0px"
	 width="200px" height="82.389px" viewBox="0 0 200 82.389" enable-background="new 0 0 200 82.389" xml:space="preserve">
<path fill="#FFFFFF" d="M42.813,50.003v2.679c-0.005,0.779-0.166,1.366-0.479,1.765c-0.314,0.395-0.753,0.596-1.318,0.596
	c-0.579-0.008-1.027-0.216-1.332-0.628c-0.309-0.407-0.468-0.986-0.468-1.732v-9.075c0.007-0.586,0.174-1.047,0.5-1.372
	c0.327-0.334,0.772-0.499,1.34-0.508c0.58-0.006,1.021,0.169,1.313,0.515c0.301,0.347,0.445,0.912,0.445,1.684v1.88h6.076v-0.6
	c-0.005-1.545-0.197-2.845-0.585-3.904c-0.379-1.052-0.92-1.898-1.619-2.538c-0.699-0.632-1.533-1.093-2.485-1.38
	c-0.951-0.28-1.999-0.42-3.145-0.413c-1.147-0.007-2.2,0.133-3.159,0.413c-0.959,0.287-1.8,0.738-2.505,1.372
	c-0.715,0.641-1.268,1.479-1.658,2.533c-0.389,1.053-0.588,2.346-0.595,3.877v6.759c0.007,1.731,0.32,3.171,0.953,4.316
	c0.625,1.152,1.526,2.014,2.699,2.586c1.172,0.565,2.579,0.853,4.225,0.853c1.645,0.007,3.051-0.274,4.226-0.845
	c1.179-0.575,2.077-1.488,2.706-2.733c0.625-1.247,0.938-2.879,0.942-4.897v-1.2H42.813L42.813,50.003z"/>
<path fill="#FFFFFF" d="M75.07,42.615c-0.279-0.604-0.663-1.116-1.142-1.52c-0.478-0.411-1.016-0.719-1.621-0.924
	c-0.599-0.206-1.224-0.312-1.867-0.312c-0.67,0-1.321,0.1-1.961,0.312c-0.636,0.205-1.208,0.519-1.724,0.944
	c-0.204,0.166-0.378,0.366-0.546,0.569c-0.023-0.733-0.158-1.392-0.417-1.959c-0.279-0.604-0.665-1.117-1.142-1.52
	c-0.134-0.116-0.281-0.203-0.425-0.301c-0.321-0.249-0.65-0.478-1.029-0.625c-0.55-0.214-1.124-0.32-1.713-0.32
	c-0.067,0-0.136,0.017-0.203,0.02c-0.04-0.002-0.08-0.011-0.118-0.011c-0.052,0-0.102,0.021-0.151,0.033
	c-0.438,0.042-0.877,0.122-1.322,0.278c-0.604,0.212-1.175,0.531-1.715,0.956c-0.538,0.426-1.001,0.957-1.395,1.594v-4.592
	l-5.739-1.834l0.002,25.598H56.9V43.896c0-0.311,0.033-0.584,0.1-0.826c0.065-0.242,0.167-0.45,0.305-0.627
	c0.271-0.352,0.689-0.525,1.267-0.531c0.519,0,0.919,0.158,1.19,0.484c0.267,0.333,0.405,0.831,0.405,1.509v15.098h6.057l0,0V46.385
	c0.05-0.419,0.151-0.785,0.358-1.053c0.271-0.352,0.689-0.525,1.268-0.529c0.52,0,0.918,0.158,1.189,0.484
	c0.265,0.331,0.405,0.829,0.405,1.508v12.208h6.057V44.722C75.495,43.924,75.349,43.221,75.07,42.615z"/>
<polygon fill-rule="evenodd" clip-rule="evenodd" fill="#FFFFFF" points="75.501,30.605 50.878,22.74 50.878,22.708 50.83,22.725 
	50.78,22.708 50.78,22.74 33.498,28.26 33.498,34.318 50.83,28.781 75.501,36.662 "/>
<g>
	<path fill="#FFFFFF" d="M89.258,41.796v-2.463c0-0.548-0.155-0.995-0.466-1.34c-0.309-0.346-0.845-0.518-1.606-0.518
		c-0.739,0-1.298,0.179-1.679,0.536c-0.381,0.355-0.57,0.809-0.57,1.356v13.251c0,0.762,0.23,1.347,0.695,1.75
		c0.464,0.406,0.971,0.607,1.519,0.607c0.522,0,1.006-0.19,1.446-0.572c0.439-0.381,0.661-0.951,0.661-1.713v-2.894h-2.18v-4.606
		h8.072v13.785h-4.036l-0.251-2.179c-0.284,0.834-0.934,1.508-1.945,2.019c-1.013,0.513-2.196,0.768-3.555,0.768
		c-0.784,0-1.559-0.125-2.32-0.376c-0.763-0.249-1.447-0.66-2.055-1.23c-0.607-0.572-1.096-1.329-1.464-2.269
		c-0.371-0.94-0.555-2.113-0.555-3.519V39.976c0-2.311,0.649-4.091,1.948-5.341c1.296-1.25,3.35-1.873,6.16-1.873
		c1.405,0,2.618,0.165,3.643,0.499c1.024,0.333,1.863,0.81,2.519,1.429c0.656,0.619,1.137,1.375,1.448,2.268
		c0.309,0.893,0.463,1.898,0.463,3.019v1.82H89.258z"/>
	<path fill="#FFFFFF" d="M96.649,46.011c0-1,0.132-1.915,0.394-2.749s0.673-1.549,1.232-2.144c0.559-0.595,1.272-1.059,2.142-1.394
		c0.871-0.332,1.923-0.499,3.162-0.499c2.476,0,4.273,0.476,5.394,1.428c1.118,0.953,1.679,2.322,1.679,4.107v10.966
		c0,0.881,0.023,1.542,0.071,1.98c0.047,0.442,0.167,0.865,0.358,1.27h-5.216l-0.321-2.428c-0.191,0.403-0.406,0.784-0.643,1.143
		c-0.239,0.356-0.53,0.667-0.876,0.929c-0.345,0.262-0.757,0.476-1.232,0.643c-0.477,0.166-1.047,0.249-1.714,0.249
		c-1.477,0-2.632-0.392-3.464-1.178c-0.834-0.787-1.252-2.131-1.252-4.036c0-1.452,0.292-2.612,0.877-3.483
		c0.582-0.867,1.458-1.6,2.624-2.196l3.715-1.893c0.618-0.311,1.048-0.601,1.285-0.874c0.238-0.273,0.358-0.709,0.358-1.305
		c0-0.403-0.125-0.762-0.376-1.072c-0.251-0.308-0.685-0.464-1.303-0.464c-0.62,0-1.067,0.202-1.34,0.607
		c-0.273,0.405-0.41,0.977-0.41,1.714v0.679H96.649z M105.223,49.441c-0.048,0.046-0.155,0.136-0.321,0.267
		c-0.167,0.132-0.371,0.274-0.609,0.429c-0.237,0.156-0.488,0.316-0.748,0.482c-0.264,0.167-0.502,0.31-0.715,0.429
		c-0.405,0.262-0.679,0.596-0.821,1.001c-0.144,0.404-0.214,0.88-0.214,1.428c0,0.666,0.112,1.143,0.338,1.429
		c0.228,0.286,0.613,0.428,1.161,0.428c0.645,0,1.126-0.231,1.448-0.696c0.319-0.464,0.481-1.196,0.481-2.196V49.441z"/>
	<path fill="#FFFFFF" d="M117.508,42.547c0.333-0.689,0.667-1.25,1.001-1.678c0.333-0.43,0.678-0.769,1.036-1.019
		c0.356-0.251,0.719-0.416,1.088-0.5c0.37-0.083,0.757-0.125,1.162-0.125v5.966c-1.501,0-2.531,0.297-3.09,0.892
		c-0.56,0.595-0.839,1.571-0.839,2.929v9.965h-5.43V39.761h5.071V42.547z"/>
	<path fill="#FFFFFF" d="M130.866,33.332h5.43v25.645h-4.859v-2.179c-0.5,0.929-1.173,1.613-2.018,2.054
		c-0.846,0.44-1.78,0.66-2.803,0.66c-0.596,0-1.156-0.13-1.679-0.392c-0.524-0.262-0.99-0.662-1.394-1.197
		c-0.406-0.535-0.728-1.208-0.965-2.019c-0.238-0.81-0.357-1.773-0.357-2.892v-8.608c0-0.881,0.126-1.645,0.376-2.285
		c0.249-0.645,0.584-1.18,1-1.608s0.887-0.75,1.41-0.964c0.524-0.214,1.06-0.321,1.608-0.321c1.07,0,1.946,0.185,2.624,0.554
		c0.68,0.368,1.221,0.934,1.626,1.695V33.332z M129.26,43.655c-1.072,0-1.608,0.784-1.608,2.355v6.93
		c0,1.501,0.536,2.251,1.608,2.251c1.069,0,1.606-0.75,1.606-2.251v-6.93C130.866,44.439,130.329,43.655,129.26,43.655z"/>
	<path fill="#FFFFFF" d="M142.939,50.048v2.965c0,0.786,0.124,1.397,0.374,1.838c0.251,0.442,0.707,0.662,1.374,0.662
		s1.126-0.227,1.375-0.68c0.251-0.451,0.376-1.059,0.376-1.82v-1.144h5.144v1.393c0,1.143-0.202,2.113-0.607,2.91
		c-0.405,0.8-0.94,1.447-1.608,1.947c-0.667,0.501-1.411,0.857-2.231,1.071c-0.821,0.216-1.638,0.321-2.447,0.321
		c-0.832,0-1.655-0.112-2.463-0.339c-0.811-0.227-1.549-0.588-2.216-1.089c-0.667-0.5-1.202-1.149-1.607-1.947
		c-0.404-0.798-0.606-1.768-0.606-2.91v-7.823c0-1.143,0.202-2.106,0.606-2.893c0.405-0.785,0.94-1.423,1.607-1.91
		c0.667-0.488,1.405-0.84,2.216-1.054c0.808-0.214,1.631-0.321,2.463-0.321c0.81,0,1.626,0.107,2.447,0.321
		c0.82,0.214,1.564,0.572,2.231,1.071c0.668,0.5,1.203,1.149,1.608,1.947c0.405,0.797,0.607,1.768,0.607,2.911v4.571H142.939z
		 M146.438,46.547v-0.678c0-1.001-0.119-1.716-0.358-2.144c-0.237-0.429-0.702-0.643-1.393-0.643c-0.618,0-1.065,0.22-1.339,0.66
		c-0.274,0.442-0.409,1.149-0.409,2.126v0.678H146.438z"/>
	<path fill="#FFFFFF" d="M157.903,42.297h0.035c0.406-0.904,1.049-1.644,1.93-2.215c0.88-0.572,1.771-0.856,2.678-0.856
		c0.549,0,1.083,0.083,1.608,0.249c0.522,0.168,0.987,0.418,1.392,0.75c0.405,0.334,0.727,0.757,0.964,1.27
		c0.238,0.513,0.358,1.125,0.358,1.838v15.645h-5.429V45.44c0-1.19-0.478-1.785-1.429-1.785c-0.523,0-0.904,0.159-1.143,0.48
		c-0.239,0.322-0.358,0.757-0.358,1.305v13.536h-5.429V39.761h4.822V42.297z"/>
</g>
</svg>
