<?xml version="1.0" encoding="utf-8"?>
<!-- Generator: Adobe Illustrator 16.0.0, SVG Export Plug-In . SVG Version: 6.00 Build 0)  -->
<!DOCTYPE svg PUBLIC "-//W3C//DTD SVG 1.1//EN" "http://www.w3.org/Graphics/SVG/1.1/DTD/svg11.dtd">
<svg version="1.1" id="Layer_1" xmlns="http://www.w3.org/2000/svg" xmlns:xlink="http://www.w3.org/1999/xlink" x="0px" y="0px"
	 width="200px" height="82.389px" viewBox="0 0 200 82.389" enable-background="new 0 0 200 82.389" xml:space="preserve">
<g>
	<g>
		<path fill="#FFFFFF" d="M57.571,50.332v2.706c-0.006,0.787-0.167,1.381-0.485,1.785c-0.317,0.397-0.761,0.602-1.333,0.602
			c-0.586-0.009-1.038-0.219-1.347-0.634c-0.311-0.412-0.473-0.997-0.473-1.753v-9.173c0.007-0.594,0.175-1.058,0.505-1.388
			c0.331-0.337,0.782-0.505,1.354-0.512c0.586-0.007,1.031,0.169,1.328,0.519c0.304,0.351,0.45,0.922,0.45,1.704v1.899h6.143v-0.606
			c-0.005-1.562-0.201-2.877-0.591-3.948c-0.384-1.064-0.93-1.919-1.637-2.565c-0.707-0.64-1.55-1.104-2.512-1.394
			c-0.963-0.283-2.021-0.425-3.18-0.418c-1.159-0.007-2.223,0.135-3.192,0.418c-0.971,0.29-1.82,0.748-2.532,1.386
			c-0.723,0.647-1.282,1.497-1.677,2.561c-0.393,1.064-0.594,2.371-0.601,3.919v6.832c0.007,1.749,0.325,3.206,0.964,4.364
			c0.633,1.164,1.543,2.034,2.729,2.612c1.185,0.573,2.606,0.862,4.271,0.862c1.663,0.006,3.085-0.276,4.27-0.854
			c1.193-0.581,2.102-1.502,2.735-2.762c0.633-1.261,0.949-2.911,0.955-4.951v-1.212H57.571L57.571,50.332z"/>
		<path fill="#FFFFFF" d="M90.181,42.863c-0.284-0.609-0.673-1.126-1.155-1.537c-0.485-0.416-1.028-0.725-1.639-0.933
			c-0.605-0.208-1.237-0.315-1.888-0.315c-0.679,0-1.335,0.101-1.981,0.315c-0.643,0.208-1.222,0.524-1.744,0.955
			c-0.206,0.168-0.38,0.371-0.551,0.576c-0.023-0.743-0.159-1.409-0.421-1.981c-0.283-0.61-0.673-1.128-1.155-1.537
			c-0.134-0.116-0.284-0.203-0.428-0.303c-0.325-0.252-0.659-0.483-1.041-0.631c-0.557-0.216-1.135-0.324-1.733-0.324
			c-0.068,0-0.137,0.015-0.204,0.02c-0.04-0.002-0.08-0.01-0.121-0.01c-0.052,0-0.102,0.02-0.152,0.035
			c-0.442,0.041-0.887,0.122-1.337,0.28c-0.611,0.214-1.187,0.537-1.732,0.967c-0.543,0.428-1.012,0.967-1.41,1.61v-4.642
			l-5.802-1.854l0.002,25.875h6.123v-15.27c0-0.314,0.035-0.59,0.101-0.836c0.068-0.244,0.17-0.456,0.308-0.632
			c0.275-0.357,0.697-0.531,1.282-0.54c0.524,0,0.927,0.163,1.202,0.491c0.269,0.336,0.41,0.84,0.41,1.525v15.261h6.124l0,0V46.674
			c0.05-0.425,0.152-0.796,0.361-1.063c0.275-0.356,0.696-0.53,1.281-0.538c0.524,0,0.928,0.161,1.203,0.491
			c0.269,0.336,0.41,0.839,0.41,1.524v12.34h6.124V44.992C90.608,44.186,90.461,43.475,90.181,42.863z"/>
		<polygon fill-rule="evenodd" clip-rule="evenodd" fill="#FFFFFF" points="90.617,30.722 65.725,22.772 65.725,22.74 
			65.675,22.756 65.625,22.74 65.625,22.772 48.155,28.352 48.155,34.475 65.675,28.879 90.617,36.844 		"/>
	</g>
	<g>
		<path fill="#FFFFFF" d="M94.335,33.504h9.965c0.745,0,1.505,0.121,2.274,0.361c0.771,0.241,1.457,0.62,2.059,1.137
			c0.602,0.518,1.094,1.191,1.48,2.022c0.384,0.831,0.577,1.823,0.577,2.979c0,0.892-0.121,1.661-0.361,2.311
			c-0.241,0.65-0.542,1.197-0.903,1.644c-0.36,0.444-0.745,0.794-1.154,1.047c-0.409,0.252-0.783,0.416-1.119,0.487
			c1.228,0.506,2.166,1.228,2.816,2.166c0.649,0.938,0.975,2.312,0.975,4.116c0,2.431-0.65,4.314-1.949,5.65
			c-1.301,1.336-3.287,2.004-5.958,2.004h-8.701V33.504z M100.363,43.506h1.842c0.892,0,1.523-0.229,1.896-0.686
			c0.373-0.458,0.56-1.204,0.56-2.24c0-0.77-0.187-1.366-0.56-1.788c-0.373-0.42-1.005-0.631-1.896-0.631h-1.842V43.506z
			 M100.363,54.77h1.41c1.178,0,1.979-0.246,2.4-0.739c0.421-0.493,0.631-1.33,0.631-2.509c0-1.084-0.204-1.914-0.613-2.492
			c-0.409-0.577-1.168-0.866-2.274-0.866h-1.554V54.77z"/>
		<path fill="#FFFFFF" d="M119.319,39.462c1.011,0,1.949,0.127,2.815,0.379c0.866,0.253,1.619,0.668,2.256,1.247
			c0.64,0.577,1.132,1.342,1.48,2.292c0.35,0.952,0.525,2.124,0.525,3.521v5.596c0,1.396-0.176,2.57-0.525,3.521
			c-0.349,0.951-0.836,1.722-1.461,2.311c-0.626,0.59-1.371,1.011-2.238,1.264c-0.866,0.254-1.818,0.379-2.853,0.379
			c-1.035,0-1.985-0.125-2.852-0.379c-0.867-0.253-1.62-0.667-2.258-1.244c-0.638-0.579-1.138-1.342-1.498-2.294
			c-0.36-0.95-0.542-2.124-0.542-3.521v-5.668c0-1.396,0.182-2.563,0.542-3.502c0.36-0.94,0.854-1.697,1.48-2.274
			c0.625-0.579,1.378-0.993,2.257-1.247C117.327,39.589,118.284,39.462,119.319,39.462z M119.319,43.758
			c-0.555,0-0.97,0.181-1.245,0.542c-0.277,0.361-0.416,0.854-0.416,1.48v7.943c0,0.698,0.15,1.215,0.451,1.552
			c0.301,0.338,0.705,0.506,1.21,0.506c0.48,0,0.867-0.168,1.155-0.506c0.288-0.337,0.434-0.818,0.434-1.443v-8.052
			C120.908,44.432,120.379,43.758,119.319,43.758z"/>
		<path fill="#FFFFFF" d="M133.039,42.821c0.336-0.699,0.673-1.265,1.011-1.698c0.336-0.433,0.687-0.777,1.048-1.029
			c0.359-0.253,0.728-0.421,1.1-0.505c0.374-0.084,0.766-0.127,1.175-0.127v6.03c-1.517,0-2.559,0.301-3.123,0.902
			c-0.565,0.603-0.849,1.589-0.849,2.96v10.074h-5.488V40.003h5.127V42.821z"/>
		<path fill="#FFFFFF" d="M146.543,33.504h5.487v25.924h-4.911v-2.202c-0.505,0.939-1.185,1.631-2.039,2.076
			c-0.855,0.445-1.801,0.667-2.834,0.667c-0.602,0-1.168-0.132-1.698-0.396c-0.528-0.266-0.998-0.668-1.407-1.21
			c-0.409-0.541-0.735-1.221-0.976-2.039s-0.36-1.793-0.36-2.926v-8.7c0-0.891,0.126-1.661,0.379-2.312
			c0.252-0.649,0.589-1.191,1.011-1.625c0.421-0.434,0.896-0.758,1.427-0.975c0.528-0.216,1.071-0.325,1.625-0.325
			c1.083,0,1.968,0.187,2.652,0.56c0.688,0.374,1.233,0.945,1.645,1.715V33.504z M144.918,43.939c-1.083,0-1.626,0.794-1.626,2.384
			v7.004c0,1.517,0.543,2.274,1.626,2.274c1.082,0,1.625-0.758,1.625-2.274v-7.004C146.543,44.733,146,43.939,144.918,43.939z"/>
	</g>
</g>
</svg>
