<?xml version="1.0" encoding="utf-8"?>
<!-- Generator: Adobe Illustrator 16.0.0, SVG Export Plug-In . SVG Version: 6.00 Build 0)  -->
<!DOCTYPE svg PUBLIC "-//W3C//DTD SVG 1.1//EN" "http://www.w3.org/Graphics/SVG/1.1/DTD/svg11.dtd">
<svg version="1.1" id="Layer_1" xmlns="http://www.w3.org/2000/svg" xmlns:xlink="http://www.w3.org/1999/xlink" x="0px" y="0px"
	 width="200px" height="82.389px" viewBox="0 0 200 82.389" enable-background="new 0 0 200 82.389" xml:space="preserve">
<path fill="#FFFFFF" d="M58.043,50.005v2.678c-0.006,0.778-0.165,1.366-0.479,1.766c-0.313,0.393-0.752,0.594-1.317,0.594
	c-0.58-0.007-1.027-0.214-1.333-0.626c-0.309-0.407-0.468-0.986-0.468-1.733v-9.074c0.008-0.588,0.173-1.047,0.5-1.373
	c0.326-0.333,0.772-0.499,1.339-0.506c0.58-0.007,1.021,0.167,1.314,0.512c0.3,0.347,0.444,0.913,0.444,1.687v1.879h6.077v-0.601
	c-0.006-1.544-0.199-2.845-0.586-3.904c-0.379-1.053-0.92-1.899-1.619-2.538c-0.698-0.633-1.532-1.092-2.485-1.38
	c-0.952-0.279-1.999-0.42-3.146-0.413c-1.146-0.007-2.198,0.134-3.158,0.413c-0.959,0.288-1.8,0.739-2.504,1.373
	c-0.715,0.64-1.269,1.479-1.66,2.532c-0.387,1.052-0.587,2.346-0.594,3.877v6.758c0.007,1.731,0.32,3.173,0.953,4.318
	c0.625,1.151,1.527,2.012,2.699,2.584c1.172,0.567,2.579,0.854,4.226,0.854c1.645,0.006,3.052-0.273,4.223-0.846
	c1.182-0.574,2.081-1.485,2.707-2.732c0.626-1.246,0.938-2.879,0.944-4.898v-1.198H58.043L58.043,50.005z"/>
<path fill="#FFFFFF" d="M90.302,42.617c-0.279-0.604-0.665-1.115-1.142-1.521c-0.479-0.411-1.017-0.717-1.621-0.923
	c-0.599-0.206-1.226-0.313-1.869-0.313c-0.67,0-1.32,0.101-1.958,0.313c-0.637,0.206-1.21,0.519-1.726,0.944
	c-0.203,0.166-0.378,0.367-0.546,0.57c-0.022-0.734-0.157-1.394-0.416-1.959c-0.279-0.605-0.665-1.116-1.143-1.522
	c-0.133-0.113-0.281-0.2-0.425-0.299c-0.32-0.25-0.65-0.478-1.029-0.625c-0.55-0.213-1.123-0.321-1.713-0.321
	c-0.067,0-0.136,0.018-0.203,0.021c-0.039-0.002-0.079-0.011-0.119-0.011c-0.051,0-0.101,0.021-0.15,0.034
	c-0.438,0.04-0.877,0.121-1.321,0.277c-0.605,0.212-1.176,0.531-1.715,0.957c-0.537,0.424-1.002,0.956-1.396,1.593v-4.591
	l-5.739-1.835l0.002,25.597h6.057V43.898c0-0.312,0.034-0.585,0.1-0.827c0.068-0.243,0.168-0.451,0.306-0.626
	c0.271-0.353,0.689-0.525,1.269-0.533c0.518,0,0.917,0.161,1.188,0.485c0.267,0.333,0.405,0.831,0.405,1.508v15.098h6.058l0,0
	V46.386c0.05-0.419,0.151-0.787,0.357-1.052c0.272-0.352,0.689-0.524,1.269-0.531c0.519,0,0.917,0.159,1.189,0.484
	c0.266,0.333,0.404,0.83,0.404,1.508v12.208h6.059v-14.28C90.726,43.924,90.579,43.222,90.302,42.617z"/>
<polygon fill-rule="evenodd" clip-rule="evenodd" fill="#FFFFFF" points="90.733,30.605 66.109,22.74 66.109,22.709 66.06,22.725 
	66.011,22.709 66.011,22.74 48.729,28.262 48.729,34.317 66.06,28.782 90.733,36.662 "/>
<g>
	<path fill="#FFFFFF" d="M110.842,48.859v2.394c0,2.929-0.674,5.054-2.018,6.375c-1.346,1.321-3.459,1.982-6.341,1.982
		c-2.834,0-4.935-0.661-6.304-1.982s-2.053-3.458-2.053-6.411v-11.18c0-1,0.159-1.939,0.481-2.821
		c0.321-0.88,0.821-1.648,1.499-2.304c0.68-0.654,1.542-1.173,2.591-1.554c1.047-0.38,2.309-0.572,3.785-0.572
		c1.452,0,2.703,0.192,3.751,0.572c1.048,0.381,1.91,0.905,2.59,1.572c0.678,0.665,1.184,1.44,1.517,2.32
		c0.334,0.882,0.501,1.821,0.501,2.821v1.752h-6.18v-2.323c0-0.333-0.071-0.625-0.214-0.874c-0.143-0.25-0.328-0.459-0.553-0.625
		c-0.228-0.166-0.471-0.291-0.732-0.375c-0.263-0.083-0.513-0.126-0.751-0.126c-0.523,0-1.006,0.149-1.447,0.447
		c-0.439,0.298-0.66,0.78-0.66,1.446v12.786c0,0.977,0.19,1.673,0.571,2.09c0.382,0.418,0.893,0.626,1.536,0.626
		c0.667,0,1.209-0.197,1.625-0.591c0.417-0.393,0.625-1.076,0.625-2.053v-3.394H110.842z"/>
	<path fill="#FFFFFF" d="M112.27,46.038c0-1,0.131-1.916,0.394-2.75c0.262-0.833,0.672-1.548,1.231-2.144
		c0.56-0.595,1.273-1.059,2.144-1.393c0.869-0.334,1.923-0.5,3.16-0.5c2.478,0,4.274,0.477,5.395,1.429
		c1.118,0.952,1.678,2.32,1.678,4.107v10.965c0,0.881,0.023,1.542,0.072,1.982c0.047,0.44,0.166,0.862,0.357,1.268h-5.215
		l-0.321-2.429c-0.191,0.405-0.405,0.786-0.644,1.144s-0.53,0.666-0.876,0.928c-0.344,0.263-0.755,0.477-1.231,0.644
		c-0.478,0.166-1.048,0.25-1.714,0.25c-1.478,0-2.632-0.393-3.465-1.179c-0.834-0.786-1.251-2.132-1.251-4.035
		c0-1.453,0.291-2.613,0.876-3.482c0.582-0.869,1.458-1.603,2.625-2.198l3.714-1.892c0.619-0.311,1.048-0.602,1.287-0.876
		c0.237-0.273,0.357-0.708,0.357-1.303c0-0.406-0.126-0.764-0.376-1.072c-0.251-0.309-0.685-0.465-1.304-0.465
		s-1.066,0.203-1.34,0.608c-0.273,0.404-0.41,0.976-0.41,1.714v0.679H112.27z M120.843,49.467c-0.049,0.048-0.155,0.138-0.322,0.268
		c-0.167,0.131-0.369,0.275-0.607,0.429c-0.238,0.155-0.488,0.315-0.75,0.482c-0.263,0.167-0.499,0.31-0.715,0.429
		c-0.404,0.262-0.678,0.596-0.821,1c-0.143,0.404-0.214,0.881-0.214,1.429c0,0.667,0.112,1.143,0.34,1.429
		c0.226,0.285,0.612,0.429,1.16,0.429c0.643,0,1.125-0.231,1.446-0.697c0.322-0.464,0.483-1.196,0.483-2.196V49.467z"/>
	<path fill="#FFFFFF" d="M133.128,42.574c0.334-0.691,0.666-1.251,1-1.68c0.334-0.428,0.68-0.769,1.037-1.018
		c0.357-0.251,0.719-0.416,1.088-0.5c0.369-0.083,0.757-0.125,1.161-0.125v5.965c-1.499,0-2.53,0.298-3.089,0.894
		c-0.561,0.595-0.84,1.57-0.84,2.928v9.965h-5.43V39.787h5.072V42.574z"/>
	<path fill="#FFFFFF" d="M142.985,50.073v2.966c0,0.785,0.126,1.398,0.375,1.839c0.25,0.44,0.708,0.66,1.375,0.66
		s1.126-0.225,1.375-0.679c0.25-0.451,0.376-1.059,0.376-1.82v-1.144h5.143v1.393c0,1.144-0.202,2.114-0.607,2.911
		c-0.404,0.798-0.94,1.447-1.606,1.947c-0.668,0.499-1.411,0.856-2.233,1.072c-0.821,0.213-1.637,0.32-2.446,0.32
		c-0.834,0-1.655-0.112-2.465-0.34c-0.81-0.225-1.548-0.588-2.214-1.089c-0.666-0.5-1.202-1.147-1.606-1.947
		c-0.406-0.797-0.607-1.769-0.607-2.91v-7.822c0-1.144,0.201-2.107,0.607-2.894c0.404-0.785,0.94-1.422,1.606-1.91
		s1.404-0.84,2.214-1.054s1.631-0.321,2.465-0.321c0.81,0,1.625,0.107,2.446,0.321c0.822,0.214,1.565,0.571,2.233,1.071
		c0.666,0.5,1.202,1.149,1.606,1.946c0.405,0.799,0.607,1.768,0.607,2.911v4.571H142.985z M146.486,46.574v-0.68
		c0-1-0.12-1.715-0.357-2.143c-0.238-0.429-0.703-0.643-1.394-0.643c-0.62,0-1.065,0.221-1.339,0.661s-0.411,1.147-0.411,2.124v0.68
		H146.486z"/>
</g>
</svg>
