<?xml version="1.0" encoding="utf-8"?>
<!-- Generator: Adobe Illustrator 16.0.0, SVG Export Plug-In . SVG Version: 6.00 Build 0)  -->
<!DOCTYPE svg PUBLIC "-//W3C//DTD SVG 1.1//EN" "http://www.w3.org/Graphics/SVG/1.1/DTD/svg11.dtd">
<svg version="1.1" id="Layer_1" xmlns="http://www.w3.org/2000/svg" xmlns:xlink="http://www.w3.org/1999/xlink" x="0px" y="0px"
	 width="200px" height="82.389px" viewBox="0 0 200 82.389" enable-background="new 0 0 200 82.389" xml:space="preserve">
<path fill="#FFFFFF" d="M36.397,46.692v2.679c-0.005,0.777-0.164,1.364-0.478,1.765c-0.315,0.393-0.753,0.596-1.319,0.596
	c-0.58-0.009-1.025-0.216-1.333-0.627c-0.308-0.406-0.467-0.987-0.467-1.733v-9.074c0.007-0.587,0.172-1.048,0.499-1.374
	c0.328-0.333,0.774-0.499,1.34-0.506c0.58-0.006,1.021,0.167,1.314,0.513c0.3,0.348,0.443,0.913,0.443,1.686v1.881h6.077v-0.602
	c-0.005-1.546-0.198-2.846-0.584-3.904c-0.381-1.053-0.92-1.899-1.62-2.537c-0.699-0.634-1.533-1.094-2.484-1.381
	c-0.953-0.279-1.999-0.42-3.146-0.414c-1.146-0.006-2.199,0.135-3.157,0.414c-0.96,0.287-1.801,0.738-2.505,1.372
	c-0.716,0.641-1.269,1.479-1.66,2.532c-0.388,1.053-0.587,2.347-0.594,3.878v6.758c0.007,1.73,0.32,3.171,0.954,4.317
	c0.626,1.152,1.525,2.012,2.698,2.585c1.172,0.566,2.578,0.853,4.225,0.853c1.646,0.005,3.051-0.272,4.225-0.845
	c1.18-0.575,2.078-1.487,2.706-2.732c0.625-1.248,0.938-2.88,0.943-4.899v-1.198H36.397L36.397,46.692z"/>
<path fill="#FFFFFF" d="M68.658,39.305c-0.28-0.604-0.665-1.115-1.142-1.521c-0.479-0.411-1.018-0.718-1.621-0.923
	c-0.601-0.206-1.225-0.313-1.869-0.313c-0.671,0-1.321,0.1-1.96,0.313c-0.636,0.205-1.208,0.519-1.725,0.943
	c-0.204,0.167-0.377,0.367-0.546,0.57c-0.021-0.732-0.157-1.393-0.416-1.96c-0.28-0.604-0.666-1.115-1.143-1.52
	c-0.133-0.116-0.28-0.201-0.423-0.3c-0.321-0.249-0.651-0.479-1.03-0.625c-0.551-0.215-1.123-0.321-1.715-0.321
	c-0.065,0-0.134,0.017-0.201,0.02c-0.039-0.002-0.08-0.011-0.119-0.011c-0.052,0-0.102,0.021-0.15,0.034
	c-0.439,0.042-0.878,0.122-1.323,0.278c-0.604,0.211-1.174,0.531-1.714,0.955c-0.538,0.426-1.002,0.957-1.396,1.594v-4.591
	l-5.738-1.833l0.001,25.596h6.058V40.586c0-0.311,0.033-0.585,0.099-0.826c0.067-0.242,0.169-0.451,0.306-0.627
	c0.271-0.353,0.69-0.524,1.268-0.531c0.52,0,0.918,0.159,1.19,0.483c0.266,0.332,0.404,0.831,0.404,1.511v15.096h6.06l0,0V43.075
	c0.049-0.421,0.149-0.788,0.355-1.054c0.272-0.352,0.69-0.524,1.269-0.531c0.519,0,0.918,0.16,1.189,0.486
	c0.267,0.331,0.405,0.829,0.405,1.508v12.207h6.058V41.41C69.081,40.613,68.935,39.91,68.658,39.305z"/>
<polygon fill-rule="evenodd" clip-rule="evenodd" fill="#FFFFFF" points="69.089,27.295 44.466,19.428 44.466,19.397 44.416,19.413 
	44.367,19.397 44.367,19.428 27.083,24.947 27.083,31.007 44.416,25.471 69.089,33.35 "/>
<g>
	<path fill="#FFFFFF" d="M72.768,30.047h8.608c2.714,0,4.696,0.512,5.946,1.537c1.251,1.023,1.875,2.677,1.875,4.963v12.501
		c0,2.118-0.631,3.757-1.892,4.91c-1.263,1.157-3.24,1.733-5.93,1.733h-8.608V30.047z M78.946,51.083h1.537
		c0.88,0,1.523-0.202,1.928-0.607c0.405-0.403,0.607-1.106,0.607-2.106V37.297c0-0.976-0.202-1.66-0.607-2.054
		c-0.404-0.394-1.06-0.588-1.964-0.588h-1.501V51.083z"/>
	<path fill="#FFFFFF" d="M95.842,46.762v2.964c0,0.786,0.126,1.399,0.374,1.841c0.25,0.44,0.709,0.66,1.376,0.66
		c0.666,0,1.125-0.226,1.374-0.68c0.251-0.451,0.377-1.059,0.377-1.821v-1.143h5.143v1.394c0,1.144-0.203,2.112-0.607,2.911
		c-0.405,0.798-0.94,1.447-1.606,1.946c-0.669,0.5-1.413,0.857-2.233,1.071c-0.821,0.215-1.638,0.321-2.446,0.321
		c-0.834,0-1.656-0.112-2.465-0.34c-0.811-0.225-1.548-0.588-2.214-1.089c-0.668-0.499-1.203-1.148-1.607-1.946
		c-0.405-0.797-0.608-1.769-0.608-2.911v-7.821c0-1.144,0.203-2.108,0.608-2.894c0.404-0.787,0.939-1.423,1.607-1.911
		c0.666-0.488,1.403-0.838,2.214-1.053c0.809-0.216,1.631-0.322,2.465-0.322c0.809,0,1.625,0.106,2.446,0.322
		c0.82,0.215,1.564,0.57,2.233,1.07c0.666,0.5,1.201,1.149,1.606,1.947c0.404,0.799,0.607,1.768,0.607,2.91v4.572H95.842z
		 M99.343,43.262v-0.678c0-1-0.12-1.715-0.359-2.145c-0.237-0.429-0.702-0.642-1.392-0.642c-0.619,0-1.065,0.22-1.341,0.661
		c-0.273,0.441-0.409,1.147-0.409,2.125v0.678H99.343z"/>
	<path fill="#FFFFFF" d="M119.771,47.584v1.07c0,2.715-0.624,4.656-1.873,5.822c-1.251,1.166-2.972,1.75-5.161,1.75
		c-2.216,0-3.942-0.571-5.18-1.715c-1.239-1.143-1.857-2.881-1.857-5.214v-6.036c0-1.381,0.178-2.537,0.535-3.464
		c0.357-0.93,0.852-1.68,1.482-2.251c0.63-0.572,1.374-0.981,2.231-1.231c0.858-0.25,1.799-0.376,2.823-0.376
		c1.023,0,1.964,0.126,2.821,0.376c0.856,0.25,1.595,0.659,2.214,1.231c0.618,0.571,1.102,1.327,1.446,2.268
		c0.346,0.942,0.518,2.104,0.518,3.482v0.536h-5.428v-1.679c0-0.69-0.132-1.19-0.395-1.499c-0.261-0.312-0.653-0.465-1.177-0.465
		c-0.5,0-0.899,0.148-1.196,0.446c-0.299,0.298-0.447,0.709-0.447,1.232v8.107c0,0.666,0.137,1.185,0.41,1.553
		c0.274,0.37,0.674,0.555,1.198,0.555c0.5,0,0.892-0.179,1.178-0.537c0.286-0.356,0.429-0.88,0.429-1.57v-2.393H119.771z"/>
	<path fill="#FFFFFF" d="M126.63,42.619l3.321-6.143h6.107l-5.144,7.571l5.358,11.644h-5.608l-3.286-7.537l-0.749,1.321v6.216h-5.43
		V30.047h5.43V42.619z"/>
	<path fill="#FFFFFF" d="M136.666,29.761h5.43v4.607h-5.43V29.761z M142.096,55.691h-5.43V36.477h5.43V55.691z"/>
	<path fill="#FFFFFF" d="M148.703,39.011h0.034c0.405-0.903,1.048-1.643,1.93-2.214c0.881-0.572,1.773-0.857,2.679-0.857
		c0.547,0,1.083,0.084,1.606,0.25c0.523,0.167,0.988,0.417,1.395,0.752c0.403,0.332,0.726,0.755,0.964,1.267
		c0.237,0.513,0.357,1.125,0.357,1.839v15.645h-5.43V42.154c0-1.19-0.477-1.786-1.429-1.786c-0.524,0-0.904,0.161-1.143,0.482
		s-0.357,0.756-0.357,1.304v13.537h-5.43V36.477h4.823V39.011z"/>
	<path fill="#FFFFFF" d="M173.276,36.477v19.501c0,1.214-0.186,2.22-0.554,3.018c-0.37,0.798-0.863,1.44-1.483,1.93
		c-0.619,0.485-1.34,0.824-2.16,1.018c-0.821,0.19-1.697,0.285-2.625,0.285c-2.311,0-4.103-0.44-5.376-1.322
		c-1.274-0.881-1.91-2.346-1.91-4.393h5.429v0.25c0,1.071,0.547,1.607,1.643,1.607c0.548,0,0.951-0.144,1.215-0.429
		c0.263-0.286,0.393-0.773,0.393-1.464v-3.536c-0.477,0.667-1.089,1.19-1.839,1.57c-0.752,0.383-1.542,0.572-2.375,0.572
		c-0.571,0-1.126-0.101-1.661-0.304c-0.536-0.202-1.013-0.519-1.429-0.946c-0.417-0.428-0.75-0.982-1.001-1.661
		c-0.25-0.679-0.374-1.493-0.374-2.447v-8.821c0-0.809,0.137-1.528,0.41-2.16c0.274-0.632,0.63-1.149,1.072-1.555
		c0.44-0.404,0.946-0.713,1.518-0.928c0.571-0.216,1.155-0.322,1.75-0.322c0.833,0,1.637,0.231,2.41,0.696
		c0.774,0.465,1.352,1.15,1.733,2.055v-2.214H173.276z M167.847,42.511c0-1.428-0.536-2.143-1.607-2.143
		c-1.096,0-1.643,0.715-1.643,2.143v6.072c0,1.454,0.547,2.179,1.643,2.179c0.523,0,0.922-0.155,1.196-0.464
		c0.273-0.309,0.411-0.868,0.411-1.679V42.511z"/>
</g>
</svg>
